<svg xmlns="http://www.w3.org/2000/svg" width="309" height="36" viewBox="0 0 309 36">
<defs>
    <style>
      .cls-1 {
        fill-rule: evenodd;
      }
    </style>
  </defs>
  <path id="シェイプ_3" data-name="シェイプ 3" class="cls-1" d="M19.073,3.735A8.42,8.42,0,0,0,15.448.92,12.893,12.893,0,0,0,10.476,0,12.585,12.585,0,0,0,5.361.976,8.5,8.5,0,0,0,1.8,3.823,8.635,8.635,0,0,0,.237,7.916C0.079,9.329,0,11.756,0,15.13v5.737a72.562,72.562,0,0,0,.249,7.311,8.557,8.557,0,0,0,1.632,4.084A8.412,8.412,0,0,0,5.5,35.077a12.9,12.9,0,0,0,4.972.92,12.587,12.587,0,0,0,5.115-.977,8.5,8.5,0,0,0,3.557-2.848,8.65,8.65,0,0,0,1.567-4.092c0.158-1.417.238-3.845,0.238-7.215V15.13A72.561,72.561,0,0,0,20.7,7.819,8.562,8.562,0,0,0,19.073,3.735ZM11.3,9.849V25.257a15.553,15.553,0,0,1-.221,3.589,0.545,0.545,0,0,1-.625.416,0.5,0.5,0,0,1-.6-0.328,14.267,14.267,0,0,1-.206-3.429V9.849c0-2.308.221-2.751,0.266-2.817a0.655,0.655,0,0,1,.6-0.3,0.5,0.5,0,0,1,.566.317A9.581,9.581,0,0,1,11.3,9.849ZM23.535,35.293h9.652V21.21H38.5V13.772H33.187v-5.3h5.968V0.7H23.535V35.293Zm17.077,0h9.652V21.21h5.314V13.772H50.264v-5.3h5.968V0.7H40.612V35.293Zm17.078,0h9.652V0.7H57.69V35.293ZM87.024,1.563a14.146,14.146,0,0,0-11.71-.556A8.712,8.712,0,0,0,71.731,3.82a8.23,8.23,0,0,0-1.559,3.731,44.932,44.932,0,0,0-.25,5.508v9.8a26.139,26.139,0,0,0,.823,7.549,7.267,7.267,0,0,0,3.492,4.139A13.108,13.108,0,0,0,80.727,36a11.435,11.435,0,0,0,6.407-1.724,8.065,8.065,0,0,0,3.419-4.092,26.271,26.271,0,0,0,.753-7.552V20.792H81.655v4.744a11.284,11.284,0,0,1-.259,3.311,0.687,0.687,0,0,1-.772.415,0.7,0.7,0,0,1-.8-0.408,10.131,10.131,0,0,1-.25-3V10.284a10.865,10.865,0,0,1,.252-3.126,0.731,0.731,0,0,1,.859-0.423,0.651,0.651,0,0,1,.738.315,9.583,9.583,0,0,1,.231,2.957v6.358h9.652V12.649A22.833,22.833,0,0,0,90.5,5.555,7.66,7.66,0,0,0,87.024,1.563Zm6.741,33.729h9.652V0.7H93.765V35.293ZM108.746,0.7l-4.529,34.589h9.974l0.517-6.026h2.114l0.462,6.026h9.886L122.093,0.7H108.746ZM116.5,22.263h-1.809c0.176-2.11.5-5.006,0.964-8.65C115.932,16.873,116.215,19.768,116.5,22.263ZM137.572,0.7H127.92V35.293H142.8v-7.77h-5.232V0.7Zm16.989,0-4.528,34.589h9.974l0.517-6.026h2.114l0.462,6.026h9.886L167.909,0.7H154.561Zm7.749,21.558H160.5c0.175-2.106.5-5,.963-8.65C161.748,16.871,162.03,19.766,162.31,22.263Zm28.282-20.7a14.146,14.146,0,0,0-11.71-.556A8.709,8.709,0,0,0,175.3,3.82a8.225,8.225,0,0,0-1.559,3.731,45.03,45.03,0,0,0-.25,5.508v9.8a26.109,26.109,0,0,0,.824,7.549,7.261,7.261,0,0,0,3.492,4.139A13.106,13.106,0,0,0,184.3,36a11.438,11.438,0,0,0,6.408-1.724,8.059,8.059,0,0,0,3.419-4.092,26.269,26.269,0,0,0,.753-7.552V20.792h-9.652v4.744a11.334,11.334,0,0,1-.258,3.311,0.689,0.689,0,0,1-.772.414,0.7,0.7,0,0,1-.8-0.408,10.115,10.115,0,0,1-.251-3V10.284a10.882,10.882,0,0,1,.252-3.126,0.734,0.734,0,0,1,.86-0.424,0.651,0.651,0,0,1,.738.315,9.562,9.562,0,0,1,.231,2.957v6.358h9.652V12.649a22.828,22.828,0,0,0-.807-7.094A7.659,7.659,0,0,0,190.592,1.563Zm23.6,0a14.146,14.146,0,0,0-11.71-.556A8.716,8.716,0,0,0,198.9,3.82a8.225,8.225,0,0,0-1.559,3.731,45.073,45.073,0,0,0-.249,5.508v9.8a26.116,26.116,0,0,0,.823,7.549,7.265,7.265,0,0,0,3.492,4.139A13.106,13.106,0,0,0,207.892,36a11.438,11.438,0,0,0,6.408-1.724,8.059,8.059,0,0,0,3.419-4.092,26.269,26.269,0,0,0,.753-7.552V20.792H208.82v4.744a11.334,11.334,0,0,1-.258,3.311,0.689,0.689,0,0,1-.772.414,0.7,0.7,0,0,1-.8-0.408,10.115,10.115,0,0,1-.251-3V10.284a10.882,10.882,0,0,1,.252-3.126,0.734,0.734,0,0,1,.86-0.424,0.651,0.651,0,0,1,.738.315,9.562,9.562,0,0,1,.231,2.957v6.358h9.652V12.649a22.828,22.828,0,0,0-.807-7.094A7.659,7.659,0,0,0,214.189,1.563ZM239.76,3.735A8.42,8.42,0,0,0,236.135.92,12.9,12.9,0,0,0,231.163,0a12.584,12.584,0,0,0-5.115.976,8.5,8.5,0,0,0-3.557,2.847,8.639,8.639,0,0,0-1.567,4.092c-0.158,1.418-.238,3.845-0.238,7.215v5.737a72.256,72.256,0,0,0,.249,7.311,8.551,8.551,0,0,0,1.632,4.084,8.412,8.412,0,0,0,3.625,2.815,12.891,12.891,0,0,0,4.971.92,12.584,12.584,0,0,0,5.115-.977,8.509,8.509,0,0,0,3.558-2.847,8.65,8.65,0,0,0,1.567-4.092c0.158-1.417.238-3.845,0.238-7.215V15.13a72.575,72.575,0,0,0-.249-7.311A8.565,8.565,0,0,0,239.76,3.735Zm-7.771,6.114V25.257a15.571,15.571,0,0,1-.221,3.589,0.546,0.546,0,0,1-.625.416,0.505,0.505,0,0,1-.6-0.327,14.407,14.407,0,0,1-.205-3.429V9.849c0-2.307.221-2.751,0.266-2.817a0.654,0.654,0,0,1,.6-0.3,0.5,0.5,0,0,1,.566.318A9.542,9.542,0,0,1,231.989,9.849Zm23.188,16.091a11.588,11.588,0,0,1-.2,3,0.476,0.476,0,0,1-.559.32,0.4,0.4,0,0,1-.463-0.273,9.131,9.131,0,0,1-.2-2.614V0.7H244.1v20.37c0,3.783.07,6.308,0.208,7.507a7.78,7.78,0,0,0,1.422,3.612,8.431,8.431,0,0,0,3.612,2.767A13.5,13.5,0,0,0,254.781,36a12.386,12.386,0,0,0,4.852-.88,8.087,8.087,0,0,0,3.394-2.635,7.85,7.85,0,0,0,1.55-3.4,39.326,39.326,0,0,0,.252-5.438V0.7h-9.652V25.941Zm24.375-12.968L275.632,0.7h-8.1V35.293h8.242V23.161l3.563,12.131h8.456V0.7h-8.242V12.972Zm9.6-12.268v7.77h5.089V35.293h9.652V8.474H309V0.7H289.149Z"/>
</svg>
