<svg xmlns="http://www.w3.org/2000/svg" width="128" height="38" viewBox="0 0 128 38">
<defs>
    <style>
      .cls-1 {
        fill: #231815;
        fill-rule: evenodd;
      }
    </style>
  </defs>
  <path id="シェイプ_2" data-name="シェイプ 2" class="cls-1" d="M12.927,13.67a6.432,6.432,0,0,1-2.5-1.97A5.243,5.243,0,0,1,9.99,9.265a3.4,3.4,0,0,1,.361-1.79,0.926,0.926,0,0,1,.857-0.441,0.732,0.732,0,0,1,.692.272,4.429,4.429,0,0,1,.255,2.066v3.139h9.927V10.6c0-2.921-.294-4.952-0.9-6.207a7.089,7.089,0,0,0-3.729-3.173A16.213,16.213,0,0,0,10.891.012,14.923,14.923,0,0,0,4.863,1.121,7.715,7.715,0,0,0,1.138,4.285C0.369,5.63-.005,7.659-0.005,10.49a12.68,12.68,0,0,0,.8,4.836,8.255,8.255,0,0,0,2.049,3.032,43.767,43.767,0,0,0,4.787,3.36,28.165,28.165,0,0,1,4.364,3.133c0.343,0.374.752,1.329,0.752,3.759a3.574,3.574,0,0,1-.386,1.878,1.037,1.037,0,0,1-.969.482,0.9,0.9,0,0,1-.882-0.333,4.9,4.9,0,0,1-.292-2.29V23.52H0.29v2.832a18.266,18.266,0,0,0,.873,6.335,7.508,7.508,0,0,0,3.8,3.843,14.7,14.7,0,0,0,6.794,1.462,15.072,15.072,0,0,0,6.354-1.266,7.648,7.648,0,0,0,3.8-3.247,13.176,13.176,0,0,0,.974-5.813c0-3.614-.572-6.181-1.748-7.846C19.968,18.18,17.286,16.168,12.927,13.67Zm27.086-.228h-1.8V0.757H27.6V37.248H38.21v-14.9h1.8v14.9H50.62V0.757H40.013V13.442ZM58.957,0.757L53.945,37.248H64.906l0.575-6.376h2.443l0.513,6.376H79.3L73.68,0.757H58.957ZM67.57,23.564H65.447c0.2-2.324.582-5.564,1.136-9.673C66.913,17.547,67.243,20.785,67.57,23.564Zm36.215-6.75c0.784-1.048,1.166-2.966,1.166-5.864,0-3.16-.525-5.417-1.6-6.9a6.857,6.857,0,0,0-4.222-2.779A53.4,53.4,0,0,0,89.858.757H82.569V37.248H93.176V21.268a1.912,1.912,0,0,1,1.471.436c0.113,0.166.377,0.816,0.377,3.247v12.3h9.927V27.382a31.434,31.434,0,0,0-.253-5.367,5.813,5.813,0,0,0-1.321-2.3,5.3,5.3,0,0,0-2.068-1.358A4.54,4.54,0,0,0,103.785,16.814Zm-8.761-6.74v1.95c0,2.017-.374,2.322-0.417,2.351a2.967,2.967,0,0,1-1.431.325V7.861a2.44,2.44,0,0,1,1.4.384A2.391,2.391,0,0,1,95.024,10.074Zm25.964,19.055v-6.78h5.967V14.581h-5.967V8.875h6.375V0.757H110.381V37.248H128V29.129h-7.01Z"/>
</svg>
