{"asset":{"version":"2.0","generator":"VECTARY"},"scene":0,"extensionsUsed":["KHR_texture_transform"],"nodes":[{"translation":[-2.7755575615628914e-20,0.0006017197181244365,0.000013910003537737747],"scale":[0.00003267711839831062,0.00003267711839831061,0.00003267711839831061],"rotation":[0.008300540353969044,0.6957134968212566,0.008040358625194644,0.7182264155569256],"name":"Building_36","mesh":0}],"materials":[{"pbrMetallicRoughness":{"baseColorFactor":[0.80000001192093,0.80000001192093,0.80000001192093,1],"baseColorTexture":{"index":0,"extensions":{"KHR_texture_transform":{"offset":[0,0],"scale":[1,1],"rotation":0}}},"metallicFactor":0,"roughnessFactor":0.2},"name":"Mat","emissiveFactor":[0,0,0],"alphaMode":"OPAQUE","doubleSided":false}],"textures":[{"sampler":0,"source":0}],"images":[{"uri":"25f2f9b0-391e-4d2f-8f78-406ec58a89ac.jpg","mimeType":"image/jpeg"}],"samplers":[{"wrapS":10497,"wrapT":10497}],"meshes":[{"primitives":[{"mode":4,"attributes":{"POSITION":1,"NORMAL":2,"TEXCOORD_0":3},"material":0,"indices":0}]}],"accessors":[{"bufferView":0,"byteOffset":0,"componentType":5125,"count":12384,"type":"SCALAR"},{"bufferView":1,"byteOffset":0,"componentType":5126,"count":12384,"max":[917.1015625,3060.245361328125,769.2703247070312],"min":[-917.1015625,0,-769.2703247070312],"type":"VEC3"},{"bufferView":2,"byteOffset":0,"componentType":5126,"count":12384,"type":"VEC3"},{"bufferView":3,"byteOffset":0,"componentType":5126,"count":12384,"type":"VEC2"}],"bufferViews":[{"buffer":0,"byteOffset":0,"byteLength":49536,"target":34963},{"buffer":0,"byteOffset":49536,"byteLength":148608,"target":34962},{"buffer":0,"byteOffset":198144,"byteLength":148608,"target":34962},{"buffer":0,"byteOffset":346752,"byteLength":99072,"target":34962}],"scenes":[{"nodes":[0],"name":"Project Name"}],"buffers":[{"byteLength":445824,"uri":"ProjectName.bin"}]}