<svg xmlns="http://www.w3.org/2000/svg" width="116" height="116" viewBox="0 0 116 116">
  <metadata><?xpacket begin="﻿" id="W5M0MpCehiHzreSzNTczkc9d"?>
<x:xmpmeta xmlns:x="adobe:ns:meta/" x:xmptk="Adobe XMP Core 5.6-c140 79.160451, 2017/05/06-01:08:21        ">
   <rdf:RDF xmlns:rdf="http://www.w3.org/1999/02/22-rdf-syntax-ns#">
      <rdf:Description rdf:about=""/>
   </rdf:RDF>
</x:xmpmeta>
                                                                                                    
                                                                                                    
                                                                                                    
                                                                                                    
                                                                                                    
                                                                                                    
                                                                                                    
                                                                                                    
                                                                                                    
                                                                                                    
                                                                                                    
                                                                                                    
                                                                                                    
                                                                                                    
                                                                                                    
                                                                                                    
                                                                                                    
                                                                                                    
                                                                                                    
                                                                                                    
                           
<?xpacket end="w"?></metadata>
<defs>
    <style>
      .cls-1 {
        fill: #fff;
        fill-rule: evenodd;
      }
    </style>
  </defs>
  <path id="シェイプ_1" data-name="シェイプ 1" class="cls-1" d="M104.593,24.787H82.965C81.356,20.532,75.368,16,71.319,16H45.683c-4.049,0-10.037,4.533-11.646,8.788H12.408A11.384,11.384,0,0,0,1,36.149V88.639A11.383,11.383,0,0,0,12.408,100h92.185A11.383,11.383,0,0,0,116,88.639V36.149A11.383,11.383,0,0,0,104.593,24.787ZM81.569,75.656A25.967,25.967,0,0,1,65.5,88.377c-8.235,2.146-17.369.089-23.338-5.253a7.067,7.067,0,0,0-1.3-1.007,25.559,25.559,0,0,0-2.715,2.5,22.468,22.468,0,0,1-2.625,2.414c-0.224-.245-5.655-20.9-5.5-20.969C30.159,66,49.7,71.118,50.849,71.52c0.224,0.067-.539.984-2.312,2.749l-2.648,2.638,1.033,0.872A17.564,17.564,0,0,0,58.838,82a16.052,16.052,0,0,0,7.674-1.565A18.854,18.854,0,0,0,76.79,68.323c0.674-2.526,1.818-3.621,3.837-3.644a2.984,2.984,0,0,1,1.683.514,3.617,3.617,0,0,1,1.773,3.018C84.083,69.509,82.759,73.466,81.569,75.656Zm5.543-17.281c-0.045.044-4.444-1.1-9.806-2.526-5.34-1.431-10.121-2.7-10.592-2.817l-0.875-.245,2.626-2.616,2.6-2.616-0.718-.671a19.359,19.359,0,0,0-7.293-3.935,22.232,22.232,0,0,0-9.784,0c-6.71,1.923-11.309,6.684-13.284,13.771a3.622,3.622,0,0,1-2.513,2.817,3.512,3.512,0,0,1-4.555-3.264,19.347,19.347,0,0,1,1.908-6.282A25.859,25.859,0,0,1,53.7,35.5a32.846,32.846,0,0,1,10.345.315,27.073,27.073,0,0,1,10.637,5.3l1.571,1.274L78.879,39.8,81.5,37.182l2.827,10.575C85.9,53.546,87.135,58.331,87.112,58.375Z"/>
</svg>
