<svg xmlns="http://www.w3.org/2000/svg" width="75" height="38" viewBox="0 0 75 38">
<defs>
    <style>
      .cls-1 {
        fill: #231815;
        fill-rule: evenodd;
      }
    </style>
  </defs>
  <path id="シェイプ_2" data-name="シェイプ 2" class="cls-1" d="M13.276,14.258a6.165,6.165,0,0,1-2.384-1.92,5.21,5.21,0,0,1-.415-2.372,3.38,3.38,0,0,1,.344-1.744,0.877,0.877,0,0,1,.817-0.43,0.691,0.691,0,0,1,.659.265,4.4,4.4,0,0,1,.243,2.013V13.13H22V11.266a15.179,15.179,0,0,0-.858-6.049,6.8,6.8,0,0,0-3.554-3.092A15.152,15.152,0,0,0,11.336.948,13.944,13.944,0,0,0,5.593,2.029,7.4,7.4,0,0,0,2.043,5.112,12.73,12.73,0,0,0,.953,11.16a12.609,12.609,0,0,0,.761,4.712,8.053,8.053,0,0,0,1.953,2.955A41.693,41.693,0,0,0,8.228,22.1a26.864,26.864,0,0,1,4.159,3.053c0.327,0.364.716,1.3,0.716,3.663a3.549,3.549,0,0,1-.367,1.83,0.981,0.981,0,0,1-.924.47,0.855,0.855,0,0,1-.84-0.325,4.866,4.866,0,0,1-.278-2.232v-4.7H1.234v2.76a18.173,18.173,0,0,0,.832,6.173,7.244,7.244,0,0,0,3.617,3.745,13.745,13.745,0,0,0,6.474,1.425,14.1,14.1,0,0,0,6.054-1.234,7.341,7.341,0,0,0,3.617-3.164,13.1,13.1,0,0,0,.928-5.665c0-3.522-.545-6.023-1.666-7.646C19.986,18.653,17.43,16.693,13.276,14.258Zm26.7,0.33L35.74,1.674H27.261V37.235h8.616v-12.8l3.856,12.8h8.856V1.674H39.973V14.587Zm33.3,5.665c-1.106-1.6-3.661-3.56-7.815-5.995a6.173,6.173,0,0,1-2.385-1.919,5.219,5.219,0,0,1-.415-2.373,3.38,3.38,0,0,1,.344-1.744,0.877,0.877,0,0,1,.817-0.43,0.691,0.691,0,0,1,.659.265,4.4,4.4,0,0,1,.243,2.013V13.13h9.459V11.266a15.179,15.179,0,0,0-.858-6.049,6.8,6.8,0,0,0-3.554-3.092A15.152,15.152,0,0,0,63.52.948a13.941,13.941,0,0,0-5.744,1.081,7.4,7.4,0,0,0-3.549,3.083,12.73,12.73,0,0,0-1.09,6.047,12.6,12.6,0,0,0,.761,4.712,8.053,8.053,0,0,0,1.953,2.955A41.694,41.694,0,0,0,60.412,22.1a26.945,26.945,0,0,1,4.159,3.053c0.327,0.364.716,1.3,0.716,3.663a3.552,3.552,0,0,1-.367,1.83,0.981,0.981,0,0,1-.924.47,0.855,0.855,0,0,1-.84-0.325,4.866,4.866,0,0,1-.278-2.232v-4.7H53.418v2.76a18.174,18.174,0,0,0,.832,6.173,7.241,7.241,0,0,0,3.617,3.745,13.746,13.746,0,0,0,6.475,1.425A14.1,14.1,0,0,0,70.4,36.727a7.341,7.341,0,0,0,3.617-3.164,13.1,13.1,0,0,0,.928-5.665C74.941,24.377,74.4,21.876,73.275,20.253Z"/>
</svg>
