<svg xmlns="http://www.w3.org/2000/svg" width="232" height="232" viewBox="0 0 232 232">
<defs>
    <style>
      .cls-1 {
        fill: #1b47a9;
        fill-rule: evenodd;
      }
    </style>
  </defs>
  <path id="シェイプ_1" data-name="シェイプ 1" class="cls-1" d="M186.911,127.48c-3.744-8.575-9.99-15.185-15.651-20.562-5.812-5.247-12.958-10.995-21.9-13.842l-0.036-.011c-5.73-1.731-10.781-1.6-15.048.405a12.838,12.838,0,0,0-6.106,6.253,10.543,10.543,0,0,0-.794,2.612,25.1,25.1,0,0,0-6.312.164,41.376,41.376,0,0,0-15.548,5.656,70.429,70.429,0,0,0-6.6,4.467c-1.685,1.218-3.231,2.57-4.725,3.877-0.45.394-.9,0.784-1.361,1.183-3.623,3.183-7.284,6.573-11.194,10.369-5.619,5.484-11.11,11.206-16.419,16.74-8.306,8.656-16.9,17.608-25.968,25.609-3.794,3.377-7.593,6.577-11.286,9.5l-2.984,2.348a29.9,29.9,0,0,0-3.276,3.092,24.028,24.028,0,0,0-4.911,7.978,18.88,18.88,0,0,0-.888,10,16.236,16.236,0,0,0,5.208,9.212,17.8,17.8,0,0,0,9.307,4.222,21.955,21.955,0,0,0,3.315.245,27.243,27.243,0,0,0,6-.7,43.647,43.647,0,0,0,15.216-7.217,79.03,79.03,0,0,0,12-10.558c1.277-1.352,2.529-2.743,3.775-4.195a17.385,17.385,0,0,0,1.492,3.686,19.312,19.312,0,0,0,6.882,7.1,20.1,20.1,0,0,0,9.407,2.984,21.006,21.006,0,0,0,6.8-.712,11.017,11.017,0,0,0,2.471,2.713,17.853,17.853,0,0,0,6.993,3.108,26.485,26.485,0,0,0,13.672-.791c0.8-.255,1.621-0.559,2.467-0.918,0.058,0.086.117,0.168,0.178,0.248a11.278,11.278,0,0,0,5.351,3.986,16.977,16.977,0,0,0,11.164-.146c5.827-1.967,10.882-6,15.06-12.046a29.582,29.582,0,0,0,5.293-16.059,104.342,104.342,0,0,0,8.205-9.832,77,77,0,0,0,7.363-12.17,42.107,42.107,0,0,0,4.143-14.328c0.025-.35.043-0.7,0.056-1.046a12.443,12.443,0,0,0,3.93-.933,11.769,11.769,0,0,0,6.412-6.5,16.38,16.38,0,0,0,.855-8.19A27.177,27.177,0,0,0,186.911,127.48Zm-13.439,8.39-1.429-1.89-5.729,3.875,1.195,2.03a15.228,15.228,0,0,1,1.625,10.242,35.477,35.477,0,0,1-4.1,11.044,80.327,80.327,0,0,1-6.924,10.477c-1.3,1.712-2.641,3.364-3.969,4.941a11.2,11.2,0,0,0-1.85-1.545,12.666,12.666,0,0,0-6.062-2.1c-0.015-.15-0.034-0.3-0.054-0.456a12.986,12.986,0,0,0-1.242-3.972,9.885,9.885,0,0,0-1.349-2,9.276,9.276,0,0,0-1.87-1.6,15.966,15.966,0,0,0-7.1-2.6,15.445,15.445,0,0,0-5.232.272c-0.015-.047-0.03-0.092-0.044-0.138a12.125,12.125,0,0,0-1.455-3.123,33.946,33.946,0,0,0,4.161-1.443,61.629,61.629,0,0,0,15.885-10.378l1.874-1.606-4.548-5.471-1.913,1.532a53.959,53.959,0,0,1-14.206,8.669,22.064,22.064,0,0,1-7.357,1.578,12.163,12.163,0,0,1-3.33-.375,7.184,7.184,0,0,1-2.236-1l-3.079-2.941-9.309,10.676a30.91,30.91,0,0,0-2.807,3.2l-1.858,1.7,1.447,2.607a26.532,26.532,0,0,1,3.62,11.121,11.434,11.434,0,0,1-3.5,9.125,9.742,9.742,0,0,1-3.992,2.5,5.635,5.635,0,0,1-3.783-.121,2.884,2.884,0,0,1-1.8-1.98c-0.444-2.227-1.021-4.664-1.618-6.841a138.9,138.9,0,0,0-4.457-13.323l-0.266-.72a28.592,28.592,0,0,1-1.51-4.9,3.878,3.878,0,0,1-.041-0.638l0.08-.228a22.437,22.437,0,0,1,1.494-2.387c1.634-2.325,3.4-4.567,5.276-6.94,0.977-1.237,1.956-2.479,2.911-3.726l0.479-.62a96.8,96.8,0,0,0,7.672-10.954l1.216-2.117-5.96-3.639-1.343,1.934c-2.669,3.844-5.691,7.417-8.889,11.2-2.707,3.2-5.506,6.511-8.111,10.047a29.783,29.783,0,0,0-2.188,3.4l-0.23.456-0.33.826a8.5,8.5,0,0,0-.392,1.751,11.036,11.036,0,0,0,.056,2.8,31.561,31.561,0,0,0,1.744,6.176c0.141,0.388.281,0.775,0.431,1.206q0.331,0.892.655,1.785a108.262,108.262,0,0,0-8.448,9.513,121.177,121.177,0,0,1-9.454,10.936,78.133,78.133,0,0,1-10.671,9.188,35.2,35.2,0,0,1-11.8,5.638c-4.016.978-7.679,0.437-9.851-1.486-2.126-1.8-2.793-5.243-1.606-8.421a14.516,14.516,0,0,1,2.925-4.76,20.31,20.31,0,0,1,2.155-2.063l2.925-2.379c3.792-3.1,7.676-6.483,11.538-10.033,9.218-8.406,17.764-17.59,26.029-26.474,5.2-5.591,10.583-11.374,16.018-16.834,3.634-3.64,7.237-7.081,10.717-10.234a48.05,48.05,0,0,1,5.424-4.451,51.889,51.889,0,0,1,5.975-3.478c4.26-2.057,8.443-3.974,12.8-4.82a21.826,21.826,0,0,1,4.182-.433,12.79,12.79,0,0,1,7.273,2.016l1.963,1.316,4.095-5.441-1.645-1.538a16.265,16.265,0,0,0-3.477-2.46,3.96,3.96,0,0,1,.449-1.124,4.4,4.4,0,0,1,2.4-1.826c2.111-.754,5.027-0.48,8.41.781a41.651,41.651,0,0,1,9.256,5.169,83.045,83.045,0,0,1,8.664,7.15,86.219,86.219,0,0,1,7.849,8.1l0.013,0.017a45.277,45.277,0,0,1,6.043,8.783c1.665,3.344,2.259,6.164,1.707,8.182a3.3,3.3,0,0,1-1.565,2.071,5.478,5.478,0,0,1-1.318.529A21.166,21.166,0,0,0,173.472,135.87Zm-44.184,70.713c0.2-.157.4-0.313,0.6-0.471a47.163,47.163,0,0,0,8.662-9.131,44.844,44.844,0,0,0,5.9-11.211,36.627,36.627,0,0,0,1.379-5.133,4.773,4.773,0,0,1,1.764.858c1.347,1.069,1.669,3.119,1.741,4.259,0.175,3.84-1.38,8.257-4.383,12.44a25.361,25.361,0,0,1-4.742,5.015,17.39,17.39,0,0,1-5.6,3.154,9.573,9.573,0,0,1-5.207.252Zm-16.886-30a27.26,27.26,0,0,0-4.039-11.876l1.764-1.7c0.4-.29.777-0.536,1.143-0.752a8.44,8.44,0,0,1,5.05-1.29,6.153,6.153,0,0,1,4.019,2.051,4.907,4.907,0,0,1,.994,1.78,2.606,2.606,0,0,1-.058,1.609c-1.289,4.655-4.226,9.345-6.311,12.45q-1.437,2.1-3.037,4.125A20.034,20.034,0,0,0,112.4,176.583ZM81,180.905q0.165,0.594.32,1.182c0.555,2.089,1.012,4.083,1.484,6.464a11.248,11.248,0,0,0,6.808,7.98,13.57,13.57,0,0,0,6.217,1.009c-0.389.186-.778,0.356-1.173,0.51a11.77,11.77,0,0,1-10.735-.718l-0.038-.023a15.634,15.634,0,0,1-6.427-9.417,7.559,7.559,0,0,1-.125-1.9C78.715,184.147,79.919,182.477,81,180.905Zm24.7,21.029a66.468,66.468,0,0,0,6.239-5.471,76.071,76.071,0,0,0,10.341-12.754,58.392,58.392,0,0,0,6.423-12.746,6.8,6.8,0,0,1,4.871-.884,8.015,8.015,0,0,1,3.417,1.407,4.317,4.317,0,0,1,.361.285,1.618,1.618,0,0,1,.2.332,5.632,5.632,0,0,1,.384,1.532,20.062,20.062,0,0,1-1.6,9.158,36.031,36.031,0,0,1-4.987,8.83c-3.277,4.264-8.654,9.8-15.661,11.959a17.194,17.194,0,0,1-8.886.488,10.819,10.819,0,0,1-2.654-.982Q104.936,202.534,105.7,201.934ZM6.294,14.483c-2.241,0-4.321,1.016-4.587,3.581A308.763,308.763,0,0,0,0,50.4c0,2.726.053,5.292,0.106,7.377,0,2.512,2.347,3.795,4.587,3.795,2.293,0,4.534-1.336,4.534-3.955V57.351c-0.16-2.406-.213-5.453-0.213-8.607a239.871,239.871,0,0,1,1.974-29.986c0-.161.053-0.321,0.053-0.534C11.041,15.872,8.641,14.483,6.294,14.483Zm32.86,35.652c0.8,0.481,1.547.963,2.027,1.282a3.07,3.07,0,0,0,1.92.642c2.08,0,3.948-2.405,3.948-4.864a4.891,4.891,0,0,0-2.4-4.117,59.6,59.6,0,0,0-5.228-2.94c-0.054-3.421-.106-7-0.214-10.53h3.148a4.07,4.07,0,0,0,4.215-4.276,4.029,4.029,0,0,0-4.215-4.223H38.94q-0.079-1.683-.16-3.207a4.01,4.01,0,0,0-4.321-3.742c-2.4,0-4.854,1.23-4.854,3.688v0.375c0.106,1.068.16,2.031,0.214,3.046-4.641.107-9.709,0.214-13.87,0.267a4.142,4.142,0,0,0-4.054,4.33,3.858,3.858,0,0,0,3.948,4.169h0.106c4.375-.16,9.549-0.267,14.4-0.321,0.106,2.459.214,5.025,0.267,7.751a47.331,47.331,0,0,0-4.96-.321c-7.1,0-14.03,3.9-14.136,12.187V49.44c0,8.873,7.735,12.187,13.442,12.187C32.112,61.627,37.82,59.061,39.154,50.135ZM20,49.119C20,46.607,22.671,45,25.551,45a15.272,15.272,0,0,1,5.122,1.015c-0.054,5.238-1.868,7.163-5.548,7.163C23.257,53.182,20,52.059,20,49.119ZM91.326,25.28a2.278,2.278,0,0,0,2.4-1.924c0.267-1.71.64-4.169,1.013-6.147V16.995c0-1.23-1.12-1.871-2.4-1.871-1.226,0-2.4.535-2.507,1.657-0.373,2.032-.747,4.436-0.96,6.254,0,0.108-.054.214-0.054,0.375C88.819,24.585,90.1,25.28,91.326,25.28Zm-6.508,0a2.37,2.37,0,0,0,2.453-1.924c0.214-1.71.587-4.169,0.907-6.147,0-.106.054-0.213,0.054-0.32,0-1.123-1.227-1.765-2.4-1.765s-2.4.535-2.507,1.657c-0.374,2.032-.747,4.436-1.013,6.254v0.214A2.255,2.255,0,0,0,84.818,25.28ZM74.736,61.146c13.23,0,20.11-11.011,23.311-23.091a7.042,7.042,0,0,0,.16-1.443c0-3.047-2.721-4.49-5.334-4.49-1.868,0-3.681.8-4.161,2.62C86.632,43.56,82.578,51.525,75,51.525c-6.3,0-9.922-3.581-9.922-11.332a130.815,130.815,0,0,1,1.867-20.525,4.032,4.032,0,0,0,.054-0.8c0-2.673-2.454-4.062-4.961-4.062-2.241,0-4.534,1.229-4.908,3.848a145.326,145.326,0,0,0-1.76,22.342C55.372,54.625,63.321,61.146,74.736,61.146Zm41.984-1.282a17.827,17.827,0,0,0,4.694-.7,3.329,3.329,0,0,0,3.04,1.764c2.4,0,5.175-1.656,5.175-3.795a2.081,2.081,0,0,0-.107-0.8c-0.212-.695-0.373-1.336-0.533-1.977,4.908-5.933,7.788-15.341,9.548-24.267a9.507,9.507,0,0,1,4.908,8.606c0,7.43-3.521,12.935-5.867,16.571a4.135,4.135,0,0,0-1.068,2.725,4.656,4.656,0,0,0,4.748,4.33,5.152,5.152,0,0,0,4.107-2.3c3.041-4.7,7.1-11.813,7.1-21.221,0-8.231-4.108-15.18-12.27-17.96,0.16-.855.266-1.657,0.374-2.512a2.626,2.626,0,0,0,.053-0.642c0-2.406-2.347-3.688-4.641-3.688-2.08,0-4.16,1.015-4.321,3.154,0,0.855-.107,1.6-0.16,2.406a31.892,31.892,0,0,0-9.015,1.336c-0.053-.588-0.107-1.23-0.16-1.765a3.8,3.8,0,0,0-4-3.528c-2.241,0-4.588,1.443-4.588,3.848,0,0.161.053,0.375,0.053,0.535,0.214,1.657.534,3.261,0.8,4.971a25.294,25.294,0,0,0-9.815,20.365C104.771,54.411,109.785,59.864,116.72,59.864ZM130.536,27.9A66.614,66.614,0,0,1,125.9,44.736c-0.96-4.7-1.867-10.155-2.508-15.448A16.918,16.918,0,0,1,130.536,27.9Zm-14.4,6.681c1.013,5.825,2.188,11.439,3.361,15.982a5.5,5.5,0,0,1-2.614.748c-2.133,0-3.841-2.137-3.841-5.612A19.03,19.03,0,0,1,116.133,34.581Zm72.923-2.94c5.334-3.207,10.135-5.879,10.135-10.637,0-3.528-3.147-5.773-9.282-5.773-9.6,0-20.324.588-25.818,0.962a4.133,4.133,0,0,0-4,4.383,4.154,4.154,0,0,0,4.268,4.436h0.48c5.707-.481,14.99-1.069,19.737-1.069h1.386c-1.973,1.443-7.04,4.33-9.335,5.612a4.026,4.026,0,0,0-2.187,3.581c0,1.818,1.281,3.581,4.055,3.849,4.748,0.481,13.656,3.154,13.656,9.247,0,1.5-1.067,2.887-2.614,4.009a22.124,22.124,0,0,0-18.19-9.835c-7.948,0-12.91,4.169-12.91,10,0,8.232,9.336,11.278,18.564,11.278,13.39,0,25.126-4.65,25.126-16.409C202.126,38.269,196.524,33.672,189.056,31.64ZM177,53.77c-5.814,0-9.655-1.5-9.655-3.742,0-1.283,1.12-2.352,4.321-2.352,3.308,0,7.735,2.3,10.348,5.559A23.519,23.519,0,0,1,177,53.77Zm49.026-39.02c-2.4,0-4.694,1.069-5.281,3.314L213.65,44.148a2.959,2.959,0,0,0-.107.962c0,2.458,2.507,4.009,4.855,4.009,1.813,0,3.52-.695,4.107-2.459l9.229-25.923A4.138,4.138,0,0,0,232,19.186C232,16.407,228.959,14.75,226.026,14.75ZM215.143,50.616a5.779,5.779,0,0,0-5.974,5.506c0,2.94,2.72,5.452,5.974,5.452A5.5,5.5,0,1,0,215.143,50.616Z"/>
</svg>
