<svg xmlns="http://www.w3.org/2000/svg" width="800" height="1500" viewBox="0 0 800 1500">
  <metadata><?xpacket begin="﻿" id="W5M0MpCehiHzreSzNTczkc9d"?>
<x:xmpmeta xmlns:x="adobe:ns:meta/" x:xmptk="Adobe XMP Core 5.6-c140 79.160451, 2017/05/06-01:08:21        ">
   <rdf:RDF xmlns:rdf="http://www.w3.org/1999/02/22-rdf-syntax-ns#">
      <rdf:Description rdf:about=""/>
   </rdf:RDF>
</x:xmpmeta>
                                                                                                    
                                                                                                    
                                                                                                    
                                                                                                    
                                                                                                    
                                                                                                    
                                                                                                    
                                                                                                    
                                                                                                    
                                                                                                    
                                                                                                    
                                                                                                    
                                                                                                    
                                                                                                    
                                                                                                    
                                                                                                    
                                                                                                    
                                                                                                    
                                                                                                    
                                                                                                    
                           
<?xpacket end="w"?></metadata>
<defs>
    <style>
      .cls-1, .cls-2 {
        fill-rule: evenodd;
      }

      .cls-1 {
        opacity: 0.2;
      }

      .cls-2 {
        fill: #fff;
      }
    </style>
  </defs>
  <path id="シェイプ_2" data-name="シェイプ 2" class="cls-1" d="M707.07,133V1329.52c0,47.67-37.836,86.67-84.081,86.67H157.135A81.071,81.071,0,0,1,130,1411.53,84.339,84.339,0,0,0,194.065,1441H659.919c46.245,0,84.081-37.43,84.081-83.19V201.775A83.033,83.033,0,0,0,707.07,133Z"/>
  <path id="シェイプ_1" data-name="シェイプ 1" class="cls-2" d="M635.126,75H164.874C118.193,75,80,113.215,80,159.922V1340.08c0,46.71,38.193,84.92,84.874,84.92H635.126c46.681,0,84.874-38.21,84.874-84.92V159.922C720,113.215,681.807,75,635.126,75ZM400.874,121.14A15,15,0,1,1,385.9,136.118,15.017,15.017,0,0,1,400.874,121.14Zm-49.9,57.168H450.77a7.489,7.489,0,0,1,0,14.978H350.975A7.489,7.489,0,0,1,350.975,178.308Zm-36.751-3.745A11.234,11.234,0,1,1,303,185.8,11.264,11.264,0,0,1,314.224,174.563ZM459.653,1340.05a58.977,58.977,0,0,1-117.56,0c-0.123-1.55-.2-3.11-0.2-4.7a58.985,58.985,0,1,1,117.969,0C459.858,1336.94,459.777,1338.5,459.653,1340.05Zm220.015-93.37H120.333V253.321H679.668V1246.68Z"/>
</svg>
