<svg xmlns="http://www.w3.org/2000/svg" width="1067" height="275" viewBox="0 0 1067 275">
<defs>
    <style>
      .cls-1 {
        fill: #1b47a9;
        fill-rule: evenodd;
      }
    </style>
  </defs>
  <path id="シェイプ_1" data-name="シェイプ 1" class="cls-1" d="M68.612,189.322a6.718,6.718,0,0,0-1.324,0,191.764,191.764,0,0,1-29.924.834c-11.38-.8-19.747-4.129-19.358-9.683,0.165-2.354,2.889-4.812,5.291-6.725a5.662,5.662,0,0,0,3.063-4.609c0.264-3.766-3.617-7.728-7.943-8.032a7.352,7.352,0,0,0-5.016,1.446C7.529,166.779.754,173.115,0.18,181.305-1,198.157,16.951,205,37.642,206.449a210.522,210.522,0,0,0,29.871-.08c5.79-.351,8.505-4.039,8.776-7.9A8.489,8.489,0,0,0,68.612,189.322ZM16.1,144.2a6.23,6.23,0,0,0,1.324,0c6.542-.3,19.062-0.934,28-0.307,6.4,0.448,11.085.967,10.9,3.6-0.125,1.788-2.42,3.519-4.306,4.806a5.71,5.71,0,0,0-3.07,4.7c-0.257,3.672,3.147,7.695,7.567,8a8.674,8.674,0,0,0,5.7-1.776c5.074-3.617,13.045-9.492,13.645-18.058,0.646-9.226-7.04-15.536-27.166-16.948-10.064-.706-23.4-0.507-31.645-0.234-4.936.316-7.464,4.018-7.741,7.972S11.4,143.872,16.1,144.2Zm141.5,52.4a7.136,7.136,0,0,0-1.417,0,132.967,132.967,0,0,1-25.188.692c-12.038-.844-22.455-4.6-21.862-13.074,0.929-13.275,33.768-19.3,51.089-21.014a7.652,7.652,0,0,0,6.943-7.365,8.453,8.453,0,0,0-8.153-9.087,14.14,14.14,0,0,0-2.747.092c-6.877,1.031-15.668,2.4-24.418,4.53-0.045-3.408-.174-9.661-0.134-14.294,0.021-4.35-3.877-6.7-7.921-6.989-4.327-.3-8.905,1.646-9.235,6.353-0.02.283-.039,0.565-0.059,0.847,0.1,5.305.428,14.127,0.7,19.633-12.856,5.437-22.987,13.808-23.9,26.8-1.147,16.38,11.013,27.64,38.946,29.6a192.976,192.976,0,0,0,26.364.052c5.038-.4,7.572-4.2,7.849-8.153C164.757,201.081,162.4,196.942,157.6,196.606Zm106.79-5.281a105.565,105.565,0,0,0-8.854-5.824c0.281-5.373.6-11.216,0.891-16.777l5.454,0.382c4.985,0.35,7.707-3.432,7.964-7.1a7.116,7.116,0,0,0-6.909-7.958c-1.5-.106-3.574-0.251-5.932-0.322,0.026-.376-0.035-0.854,0-1.324l0.376,0.026a3.511,3.511,0,0,0,3.678-2.58c0.554-2.515,1.376-6.147,2.151-9.12,0.006-.094.019-0.283,0.026-0.377,0.119-1.7-1.508-2.755-3.389-2.887-1.693-.118-3.345.523-3.745,2.2-0.14.652-.381,1.392-0.521,2.044A7.815,7.815,0,0,0,250,139.135c-4.232-.3-8.71,1.564-9.013,5.9-0.013.188-.033,0.471-0.046,0.659q0.035,3.551.07,7.1c-8.29-.392-17.238-0.831-24.674-1.258-4.615-.229-7.418,3.359-7.682,7.124-0.257,3.672,1.656,7.4,6.264,7.724l0.377,0.027c7.718,0.446,16.854.9,25.513,1.411-0.076,3.779-.259,7.74-0.454,11.888a84.132,84.132,0,0,0-8.707-1.178c-12.509-.878-25.216,5.137-26.426,19.716-0.007.094-.007,0.094-0.013,0.188-1.094,15.628,12.134,22.421,22.2,23.127,12.6,0.884,22.983-2.928,26.434-18.485,1.352,0.946,2.609,1.885,3.416,2.51a5.435,5.435,0,0,0,3.307,1.367c3.668,0.257,7.256-3.748,7.559-8.079A8.634,8.634,0,0,0,264.393,191.325ZM228.725,206.7c-3.292-.231-8.89-2.61-8.528-7.788,0.31-4.424,5.21-6.918,10.289-6.562a27.028,27.028,0,0,1,8.9,2.422C238.65,203.994,235.214,207.159,228.725,206.7ZM200.3,136.216c-3.949-.277-7.742,1.254-8.529,5.74a544.379,544.379,0,0,0-7,56.745c-0.336,4.8-.559,9.327-0.722,13-0.309,4.425,3.67,6.974,7.62,7.251,4.045,0.284,8.159-1.793,8.482-6.406,0.014-.188.02-0.282,0.033-0.47,0.015-4.257.3-9.629,0.685-15.184a423.061,423.061,0,0,1,7.178-52.569c0.019-.283.133-0.559,0.16-0.935C208.5,139.251,204.436,136.506,200.3,136.216Zm69.143,1.917c-1.693-.118-3.439.516-3.745,2.2-0.776,2.972-1.678,6.41-2.239,9.019-0.013.188-.02,0.282-0.033,0.471-0.138,1.976,1.576,3.138,3.552,3.276a3.441,3.441,0,0,0,3.677-2.58c0.554-2.515,1.47-6.141,1.963-9.134a4.031,4.031,0,0,1,.127-0.464C272.854,139.319,271.227,138.259,269.44,138.133Zm69.911,9.824c-28.12-1.973-45.935,17.591-47.714,43.009-1.437,20.523,8.828,31.839,19.362,32.578,12.132,0.851,20.414-9.448,26.55-26.9a154.375,154.375,0,0,0,7.09-32.425c8.912,3.652,13.324,12.192,12.552,23.207-0.955,13.651-9.519,23.929-13.886,28.259a8.6,8.6,0,0,0-2.848,5.571c-0.329,4.707,4.129,8.52,8.173,8.8,3.2,0.225,5.447-.847,8.1-3.688a60.615,60.615,0,0,0,17.05-38.349C375.167,168.255,365.027,149.758,339.351,147.957Zm-16.441,41.8c-3.5,10.823-7.521,16.974-10.812,16.743-2.822-.2-5.9-6.184-5.366-13.81,1-14.215,8.521-27.216,22.127-29.856A149.669,149.669,0,0,1,322.91,189.754Zm151.884-8.172c-2.163-.151-5.743-0.308-10.446-0.638-0.069-1.707-.132-3.509-0.3-5.223,3.863,0.176,7.531.433,10.541,0.644,4.608,0.324,6.921-3.015,7.171-6.592a6.711,6.711,0,0,0-6.189-7.435c-2.634-.185-7.061-0.4-12.428-0.683-0.129-.86-0.157-1.808-0.286-2.669-0.375-4.094-3.924-6.046-7.592-6.3-4.232-.3-8.817,1.746-9.081,5.512-0.013.188,0.061,0.477,0.042,0.76,0.047,0.666.2,1.244,0.244,1.909-14.033-.7-28.926-1.272-36.463-1.612a7.118,7.118,0,0,0-7.38,6.862c-0.237,3.389,1.8,6.748,6.405,7.071,11.023,0.49,25.445,1.029,38.914,1.69,0.164,1.714.321,3.522,0.478,5.331-15.068-.773-32.218-1.5-41.173-1.848-4.426-.215-6.934,3.2-7.184,6.781A6.206,6.206,0,0,0,406.112,192l0.188,0.013c2.264,0.064,4.709.236,7.443,0.333a7.548,7.548,0,0,0-4.927,2.871c-2.79,3.4-6.289,8.83-6.7,14.667-0.989,14.121,10.673,24.4,36.442,26.207a171.474,171.474,0,0,0,25.915-.263c5.413-.377,7.833-3.9,8.084-7.474,0.27-3.86-2.187-7.912-6.608-8.222a10.558,10.558,0,0,0-1.612.076,119.688,119.688,0,0,1-24.812.72c-13.261-.93-21.468-5.2-20.941-12.727a9.386,9.386,0,0,1,2.955-5.753,5.835,5.835,0,0,0,1.761-3.566c0.2-2.919-2.539-5.571-5.973-6.474,9.707,0.4,21.382,1.027,31.734,1.659a19.925,19.925,0,0,1-.036,3.214c-0.158,2.259-1.534,3.014-3.6,2.869a6.15,6.15,0,0,1-2.318-.636c-0.282-.019-0.558-0.133-0.84-0.153-3.2-.224-5.484,2.737-5.682,5.561-0.237,3.39,1.8,6.749,6.727,7.851a30.1,30.1,0,0,0,5.61.867c7.336,0.515,14.811-.948,15.542-11.4,0.132-1.882.216-4.431,0.219-7.174,3.674,0.163,6.872.387,9.129,0.546A7.035,7.035,0,1,0,474.794,181.582Zm56.354,17.2a6.579,6.579,0,0,0-4.433,1.2c-3.972,2.749-7.114,4.421-9.371,4.262-3.1-.218-4.343-2.764-3.993-7.754,0.566-8.1,3.406-18.965,6.585-27.919a6.549,6.549,0,0,0,.414-1.863c0.316-4.519-4.094-7.666-8.515-7.977-3.573-.25-7.373,1.375-8.61,5.546-2.647,9.463-5.4,20.434-6.211,32.013-1.14,16.287,5.662,24.427,15.913,25.146,8.276,0.581,17.338-4.649,21.713-7.748A7.973,7.973,0,0,0,531.148,198.781Zm34.066-37.061c-4.327-.3-8.717,1.659-9.033,6.178-2.2,24.726-8.744,46.594-18.693,65.858a7.549,7.549,0,0,0-.862,2.872c-0.323,4.613,3.718,7.64,8.232,7.957a8.859,8.859,0,0,0,9.048-5.042c9.672-20.7,17.234-46.377,19.8-69.47,0.013-.188.02-0.282,0.033-0.471C574.071,164.8,569.729,162.037,565.214,161.72Zm88.456,8.192a7.82,7.82,0,0,0-5.31-2.454c-4.327-.3-8.621,2.99-8.871,6.568a4.943,4.943,0,0,0,1.7,4.092,109.179,109.179,0,0,1,15.6,20.205,6.368,6.368,0,0,0,5.244,3.395c4.137,0.29,8.459-3.38,8.749-7.522a6.4,6.4,0,0,0-1.134-4.053A179.275,179.275,0,0,0,653.67,169.912Zm-26.725,11.843c-1.5-.106-3.01-0.211-4.521-0.223,1.071-3.141,2.121-6,2.951-8.4a7.375,7.375,0,0,0,.28-1.3c0.257-3.672-4-6.241-8.331-6.545-3.574-.251-7.26,1.1-8.262,4.623-1.192,3.512-2.409,7.4-3.727,11.375-5.212.2-9.853,0.35-13.273,0.583-4.365.262-6.678,3.6-6.929,7.177-0.277,3.954,1.9,7.985,6.413,8.3,0.377,0.027.759-.041,1.136-0.015,2.464-.111,5.023-0.215,7.777-0.4-5.084,15.915-10.106,32.307-13.088,42.505a7.214,7.214,0,0,0-.287,1.4c-0.29,4.142,3.79,6.6,8.022,6.9,3.575,0.251,7.186-1.388,8.315-5.377,2.486-9.853,8.372-29.118,13.885-45.76,1.786,0.125,3.674.163,5.461,0.288,11,0.772,13.835,3.525,13.189,12.751-0.705,10.073-5.068,22.444-8.971,32.293a7.829,7.829,0,0,0-.427,2.051c-0.29,4.143,3.764,6.982,8,7.279,3.573,0.25,7.366-1.281,8.886-5.432,3.039-8.3,8.032-25.642,8.777-36.28C653.141,196.364,648.952,183.3,626.945,181.755Zm123.3,36.936c-3.48-.244-6.884,1.126-7.98,4.644-2.409,7.4-5.842,17.281-10.731,16.938-1.882-.132-2.631-2.928-3.925-6.046-1.637-3.615-3.878-6.705-9.427-7.095l-0.47-.033c22.336-13.948,31.59-20.583,32.295-30.657,0.5-7.154-5.679-12.034-16.494-12.793-2.351-.165-4.891-0.343-7.437-0.427-1.864-3.064-4-6.335-5.64-8.532a9.947,9.947,0,0,0-7.737-4.232c-4.608-.323-9.5,2.077-9.739,5.466a5.041,5.041,0,0,0,1,3.192c0.868,1.1,1.824,2.3,2.685,3.5-6.328-.066-12.186-0.1-16.814-0.139-5.568-.106-8.479,3.663-8.749,7.522-0.283,4.049,2.362,8.113,7.723,8.489l0.941,0.066c8.792-.045,21.85-0.265,33.794.573,1.6,0.112,3.191.318,4.79,0.431-4.113,3.4-10.971,8.217-17.824,12.94-11.912,8.152-24.791,16.614-34.326,23.23A8.239,8.239,0,0,0,672.534,242c-0.323,4.612,3.412,9.321,8.02,9.644a7.476,7.476,0,0,0,5.317-1.708c6.953-4.811,15.072-11.431,20.244-11.068,4.515,0.317,5.883,3.724,8.133,8.044,2.573,5.1,5.931,9.782,15.147,10.429,12.509,0.877,21.47-8.333,28.705-27.976a10.638,10.638,0,0,0,.447-2.334C758.9,221.947,754.573,219,750.247,218.691ZM857.56,208.623c5.173,0.362,8.19-3.588,8.474-7.636a7.677,7.677,0,0,0-.926-4.323,3.176,3.176,0,0,0,1.374-2.079c0.668-2.791,1.415-6.712,2.2-9.874,0.013-.188.02-0.282,0.033-0.47,0.125-1.789-1.677-3.051-3.558-3.183s-3.828.678-4.235,2.447c-0.782,3.067-1.6,6.7-2.278,9.584l-2.54-.178c0.662-2.7,1.47-6.141,2.138-8.932,0.013-.188.02-0.282,0.033-0.471,0.125-1.789-1.677-3.05-3.652-3.189s-3.828.678-4.235,2.447c-0.782,3.067-1.7,6.786-2.284,9.678-3.668-.257-7.907-0.46-12.327-0.77a18.383,18.383,0,0,0,.252-2.252c0.053-.754.125-1.789,0.244-3.484,0.3-4.236-3.6-6.591-7.741-6.881s-8.421,1.49-8.718,5.727c-0.145,2.071-.224,3.2-0.283,4.048a16.539,16.539,0,0,1-.246,2.158c-9.418-.471-18.091-0.8-23.188-0.869-4.434-.122-7.049,3.479-7.313,7.244-0.27,3.86,1.724,7.784,6.52,8.121l0.471,0.033c6.327,0.065,14.146.425,22.247,0.8-1.513,18.909-2.967,35.646-4.311,50.783-0.323,4.613,3.751,7.17,7.984,7.467s8.528-1.673,8.851-6.286c0.706-10.073,2.51-31.8,4.049-51.086,8.941,0.533,17.13,1.013,22.773,1.408Zm0.377,10.811c-0.583-3.825-3.849-5.757-7.517-6.014-4.139-.291-8.555,2.048-8.852,6.285a3.916,3.916,0,0,0,.021,1.042,313.972,313.972,0,0,0,7.114,34.746c0.9,3.28,3.815,4.9,6.918,5.121,4.42,0.31,9.577-1.788,9.88-6.119a6.207,6.207,0,0,0-.224-2.191A218.454,218.454,0,0,1,857.937,219.434ZM801,210.521c-3.291-.231-6.782,1.038-7.954,4.267-3.881,10.891-7.526,22.461-11.064,33.849a6.178,6.178,0,0,0-.187,1.311c-0.277,3.954,3.973,6.712,8.205,7.009,3.479,0.244,7.165-1.106,8.2-5.1,2.807-10.4,5.763-20.22,10.373-33.425a7.214,7.214,0,0,0,.287-1.4C809.122,213.361,805.143,210.811,801,210.521Zm148.514-16.734c-6.959-.488-14.9-0.477-21.246-0.26a8.367,8.367,0,0,0,.293-1.493c0.237-3.389-4.261-6.638-8.681-6.948a7.979,7.979,0,0,0-7.216,3.184c-7.3,9.7-17.841,25.332-25.316,36.255a6.058,6.058,0,0,0-1.051,2.859c-0.29,4.142,3.712,7.734,8.132,8.044a7.822,7.822,0,0,0,7.344-3.647c0.736-1.084,1.381-2.174,2.118-3.257a241.8,241.8,0,0,1,29.123,13.3,209.727,209.727,0,0,1-17.337,15.434,6.8,6.8,0,0,0-2.6,4.737,8.677,8.677,0,0,0,7.985,8.79,10.455,10.455,0,0,0,7.157-2.335c17.815-14.172,41.992-38.208,43.224-55.812C972.134,202.848,965.413,194.9,949.518,193.787Zm-5.56,36.222a296.2,296.2,0,0,0-31.73-13.862c1.9-2.8,3.787-5.5,5.772-8.2,7.207-.345,18.647-0.4,26.077.127,7.147,0.5,9.327,3.114,9.123,6.032C952.936,217.868,949.323,223.574,943.958,230.009ZM1019.1,224.5c5.17,0.363,9.75-4.236,10.08-8.943a7.58,7.58,0,0,0-2.95-6.451c-6.67-4.63-14.36-9.616-21.27-13.506a9.317,9.317,0,0,0-4.16-1.333c-5.169-.363-8.985,4.195-9.3,8.713a7.067,7.067,0,0,0,3.4,6.767c5.7,3.616,13.66,8.716,20.33,13.346A7.914,7.914,0,0,0,1019.1,224.5Zm40.94,2.493a10.11,10.11,0,0,0-5.29,1.238c-13.33,6.916-41.39,22.923-56.377,31.8a8.1,8.1,0,0,0-3.847,6.352,9.107,9.107,0,0,0,8.224,9.47,10.691,10.691,0,0,0,6.44-1.629c13.22-7.871,37.85-22.132,54.75-31.352a7.95,7.95,0,0,0,3.74-6.265C1068,232.089,1064.84,227.326,1060.04,226.989ZM596.555,66.182l1.705-.9,0.665-.385c0.891-.506,1.772-1.029,2.632-1.588,1.736-1.089,3.4-2.292,5.025-3.546l1.147-1.035c0.722-.663,1.74-1.627,2.888-2.849A54.22,54.22,0,0,0,618,46.162a43.882,43.882,0,0,0,4.7-11c0.811-3.09.955-5.081,0.837-4.718a26.559,26.559,0,0,0-.484-9.363c-0.619-2.445-1.481-4.015-2.112-4.467-0.655-.447-1.13.213-1.445,2.189a62.724,62.724,0,0,1-2.168,9.943,40.787,40.787,0,0,1-4.1,8.12,44.283,44.283,0,0,1-5.568,6.855,51.962,51.962,0,0,1-5.013,4.46c-1.329,1.014-2.141,1.586-2.141,1.586-1.31,1.08-2.673,2.1-4.088,3.049-0.7.483-1.433,0.92-2.152,1.375l-1.106.64-0.553.319-1.5.793a49.906,49.906,0,0,1-6.847,2.876c1.8-5.346,3.321-10.734,4.728-16.114A65.783,65.783,0,0,0,591.5,24.752a32.894,32.894,0,0,0-1.65-9.913,22.056,22.056,0,0,0-6.037-9.327c-0.734-.605-1.49-1.188-2.25-1.761-0.829-.512-1.677-1.025-2.551-1.462a20.41,20.41,0,0,0-5.555-1.7,23.618,23.618,0,0,0-10.867.962A27.789,27.789,0,0,0,553.5,6.563a27.223,27.223,0,0,0-3.712,3.684,19.753,19.753,0,0,0-1.6,2.126l-0.738,1.116-0.615,1.1a35.7,35.7,0,0,0-3.479,9.239,47.938,47.938,0,0,0-1.111,9.363,69.5,69.5,0,0,0,.4,9.031,87.083,87.083,0,0,0,1.367,8.812,32.478,32.478,0,0,0,3.455,9.432,22.454,22.454,0,0,0,7.648,7.91,28,28,0,0,0,9.751,3.665c0.473,0.088.942,0.142,1.413,0.209a100.727,100.727,0,0,1-6.294,11,75.868,75.868,0,0,1-9.946,12,65.77,65.77,0,0,1-12.229,9.334,57.668,57.668,0,0,1-7.843,3.736,47.529,47.529,0,0,1-8.254,2.288,3.3,3.3,0,0,0-.717.615c-2.32,2.832-2.862,5.221-2.171,7.045a7.007,7.007,0,0,0,4.072,3.689,1.121,1.121,0,0,0,.873.12,59.148,59.148,0,0,0,10.314-2.862,69.237,69.237,0,0,0,9.562-4.558,77.431,77.431,0,0,0,14.267-10.835,86.537,86.537,0,0,0,11.394-13.6A113.38,113.38,0,0,0,579.207,72a57.614,57.614,0,0,0,13.217-3.88C593.829,67.53,595.2,66.874,596.555,66.182ZM578.078,38.443c-1.354,5.319-2.858,10.626-4.547,15.8q-1.126,3.424-2.4,6.768a22.357,22.357,0,0,1-7.746-1.4,11.724,11.724,0,0,1-4.618-3.217,13.853,13.853,0,0,1-2.758-5.3,47.64,47.64,0,0,1-1.482-7.338,67.794,67.794,0,0,1-.68-7.736,33.336,33.336,0,0,1,2.267-14.026,20.865,20.865,0,0,1,1.538-2.876,10.172,10.172,0,0,1,.881-1.213l0.477-.593,0.542-.551a17.094,17.094,0,0,1,5.1-3.56,13.29,13.29,0,0,1,5.681-1.233,8.45,8.45,0,0,1,4.749,1.445,9.522,9.522,0,0,1,3.314,4.049,18.113,18.113,0,0,1,1.416,6.154A48.363,48.363,0,0,1,578.078,38.443Z"/>
</svg>
