<svg xmlns="http://www.w3.org/2000/svg" width="956" height="679" viewBox="0 0 956 679">
<defs>
    <style>
      .cls-1 {
        fill: #1b47a9;
        fill-rule: evenodd;
      }
    </style>
  </defs>
  <path id="シェイプ_1" data-name="シェイプ 1" class="cls-1" d="M338.6,367.179a6.358,6.358,0,0,0,1.353-.174c6.651-1.154,19.371-3.43,28.588-3.95,6.6-.372,11.46-0.452,11.613,2.265,0.1,1.845-2.018,3.912-3.779,5.473A5.881,5.881,0,0,0,373.849,376c0.213,3.786,4.216,7.454,8.777,7.2a8.94,8.94,0,0,0,5.6-2.556c4.718-4.356,12.108-11.394,11.61-20.228-0.536-9.512-9.215-14.963-29.978-13.791-10.381.586-24,2.523-32.388,3.874-5.007.964-7.112,5.075-6.882,9.152S333.752,367.453,338.6,367.179ZM368.7,428a217.085,217.085,0,0,0,30.534-3.963c5.875-1.111,8.173-5.233,7.949-9.213a8.744,8.744,0,0,0-9.037-8.351,6.836,6.836,0,0,0-1.352.174,197.8,197.8,0,0,1-30.49,4.74c-11.741.662-20.729-1.654-21.051-7.382-0.137-2.426,2.329-5.292,4.538-7.559a5.839,5.839,0,0,0,2.534-5.109c-0.219-3.883-4.7-7.427-9.165-7.175a7.585,7.585,0,0,0-4.941,2.128c-5.457,5.08-11.563,12.435-11.087,20.881C328.114,424.541,347.357,429.2,368.7,428ZM476.4,421.917a216.923,216.923,0,0,0,30.533-3.963c5.876-1.11,8.173-5.232,7.949-9.212a8.742,8.742,0,0,0-9.036-8.351,6.771,6.771,0,0,0-1.353.174A197.774,197.774,0,0,1,474,405.3c-11.74.663-20.728-1.654-21.051-7.381-0.137-2.426,2.329-5.293,4.538-7.559a5.837,5.837,0,0,0,2.534-5.109c-0.219-3.883-4.7-7.427-9.165-7.176a7.587,7.587,0,0,0-4.941,2.129c-5.456,5.08-11.563,12.435-11.086,20.88C435.806,418.463,455.05,423.122,476.4,421.917ZM446.3,361.1a6.341,6.341,0,0,0,1.352-.174c6.652-1.154,19.372-3.43,28.589-3.95,6.6-.373,11.46-0.452,11.613,2.265,0.1,1.845-2.018,3.912-3.779,5.472a5.882,5.882,0,0,0-2.53,5.207c0.213,3.785,4.216,7.454,8.777,7.2a8.943,8.943,0,0,0,5.6-2.556c4.717-4.356,12.107-11.394,11.609-20.228-0.536-9.512-9.213-14.963-29.977-13.791-10.382.586-24,2.523-32.388,3.874-5.008.964-7.112,5.075-6.882,9.151S441.444,361.375,446.3,361.1Zm127.762-5.751a7.361,7.361,0,0,0,1.45-.178c5.869-1.209,16.179-3.056,22.583-3.417,4.754-.269,7.5.063,7.613,2.1,0.132,2.329-1.607,4.277-3.175,5.827a5.53,5.53,0,0,0-1.991,4.4c0.208,3.689,4.485,7.05,8.851,6.8a7.76,7.76,0,0,0,5.6-2.556c2.946-2.99,9.1-11.224,8.641-19.378-0.416-7.378-6.659-14.523-22.669-13.619a250.489,250.489,0,0,0-27.925,3.621c-4.812.953-6.631,4.951-6.423,8.64C566.847,351.765,569.6,355.6,574.058,355.35Zm27.633,58.522A107.685,107.685,0,0,0,621,411.029c5.486-1.089,7.3-5.183,7.07-9.26-0.225-3.98-3.252-7.606-7.715-7.354a7.883,7.883,0,0,0-1.45.179c-6.634,1.445-11.437,2.593-17.647,2.943-10.09.57-17.795-1.429-18.14-7.545-0.169-3.009,3.327-6.615,5.173-8.374a5.289,5.289,0,0,0,1.8-4.386c-0.225-3.98-4.524-7.729-9.084-7.472a7.932,7.932,0,0,0-4.758,1.924c-4.508,4.636-10.2,12.455-9.651,22.162C567.55,410.832,584.615,414.835,601.691,413.872Zm-46.452,4.764c4.367-.246,8.472-3.4,8.166-8.835-0.006-.1-0.006-0.1-0.011-0.195-0.284-3.294-.947-9.878-1.22-14.732a357.121,357.121,0,0,1,.859-53.8c-0.017-.29.063-0.588,0.047-0.878-0.257-4.563-4.77-6.937-8.943-6.7-4.075.23-8.041,2.4-8.457,7.1a510.481,510.481,0,0,0-.2,60.384c0.181,3.2.605,7.269,0.854,9.982C546.645,416.394,550.971,418.877,555.239,418.636ZM91.449,542.473c0.132-14.9.194-31.074-.436-42.236-0.706-12.522-9.826-18.92-26.418-17.984-16.882.953-36.114,3.4-45.767,4.823-4.533.742-6.627,5.048-6.391,9.222s2.891,8.113,7.839,7.834l0.776-.044c10.235-1.454,26.653-3.744,39.849-4.489,6.791-.383,11.455,1.2,11.805,7.416,0.339,6.018.465,20.325,0.6,29.666,0.019,3.8-1.268,5.135-4.955,5.343C50.9,543.2,36.17,544.327,23,545.46c-4.943.377-7.407,5-7.161,9.363,0.23,4.077,3.069,7.812,8.405,7.511l0.194-.011c13.453-1.344,44.371-3.673,53.782-4.2C87.92,557.571,91.461,551.334,91.449,542.473Zm32.381-36.688a8.357,8.357,0,0,0-7.954,9.115c0.252,4.466,3.317,8.772,8.653,8.471l0.291-.017c18.277-2.1,46.667-4.387,67.431-5.559,6.016-.339,8.783-4.78,8.536-9.148-0.241-4.27-3.5-8.469-9.51-8.129C169.252,501.761,140.388,504.266,123.83,505.785Zm151.82-24.441c0.208-3.225.651-7.437,1.031-11.061-0.011-.194-0.016-0.292-0.027-0.486-0.11-1.941-2.213-2.991-4.348-2.87-2.037.115-4.014,1.3-4.195,3.255-0.386,3.527-.932,7.648-1.14,10.873,0.011,0.195.017,0.291,0.028,0.485,0.131,2.33,2.331,3.374,4.563,3.248A4.05,4.05,0,0,0,275.65,481.344Zm11.255-.635c0.305-3.231.651-7.437,1.031-11.061-0.011-.194-0.022-0.389-0.028-0.486-0.109-1.941-2.115-3-4.346-2.87-2.038.115-3.918,1.292-4.1,3.25-0.482,3.532-.932,7.648-1.138,10.873,0.011,0.194.016,0.291,0.022,0.387,0.137,2.428,2.336,3.471,4.665,3.34A3.982,3.982,0,0,0,286.9,480.709ZM231.879,468.04c-4.463.252-8.8,2.834-8.527,7.589,0.468,11.757,2.187,54.31,2.983,71.89,0.29,5.144,4.993,7.411,9.65,7.148,4.463-.252,8.973-3.135,8.688-8.183-0.47-8.348-.983-20.88-1.506-33.607,14.184,1.244,30.632,2.945,43.781,4.832a13.2,13.2,0,0,0,1.854.09c5.725-.323,8.361-5.34,8.1-10-0.2-3.592-2.329-6.782-6.351-7.335-12.356-1.639-31.053-3.5-48.147-4.586-0.373-8.352-.709-16.027-1-21.268C241.13,469.855,236.439,467.783,231.879,468.04Zm157.668,72.409c2.03-8.878,4.888-27.249,4.269-38.216-0.766-13.59-6.745-26.4-29.449-25.117-1.552.087-3.1,0.175-4.651,0.36,0.687-3.35,1.391-6.408,1.927-8.97a7.69,7.69,0,0,0,.118-1.37c-0.214-3.786-4.905-5.858-9.368-5.606-3.687.208-7.281,2.067-7.85,5.8-0.762,3.743-1.5,7.875-2.334,12.109-5.3.884-10.03,1.637-13.5,2.319-4.43.835-6.363,4.547-6.155,8.236,0.23,4.076,2.978,7.914,7.635,7.651,0.388-.022.771-0.142,1.159-0.164,2.506-.433,5.11-0.872,7.9-1.419-3.134,16.926-6.142,34.331-7.869,45.14a7.586,7.586,0,0,0-.112,1.467c0.241,4.27,4.733,6.257,9.1,6.011,3.687-.209,7.167-2.353,7.805-6.576,1.264-10.393,4.782-30.846,8.26-48.569,1.843-.105,3.778-0.312,5.622-0.416,11.352-.64,14.6,1.805,15.141,11.318,0.585,10.386-2.271,23.6-4.984,34.168a5.509,5.509,0,0,0-.193,1.763c0,0.1.016,0.292,0.022,0.389,0.241,4.27,4.755,6.645,9.121,6.4C384.852,546.946,388.532,544.889,389.547,540.449ZM397.218,459c-0.1-1.844-2.105-2.8-4.045-2.693s-3.929,1.1-4.116,2.959a24.2,24.2,0,0,1-.374,3.722l-0.582.033c-4.463.251-8.433,4.078-8.219,7.864a5.237,5.237,0,0,0,2.17,3.967,94.66,94.66,0,0,1,14.977,15.319,6.564,6.564,0,0,0,5.8,2.789c4.269-.241,8.211-4.553,7.97-8.825a6.577,6.577,0,0,0-1.685-3.994c-2.6-2.872-4.872-5.276-7.041-7.49a6,6,0,0,0,1.266.025,3.7,3.7,0,0,0,3.707-3.324c0.32-2.94.765-7.152,1.063-10.48,0-.1-0.016-0.291-0.022-0.388-0.109-1.942-2.013-2.9-4.147-2.785-1.941.11-3.735,1.087-3.922,2.948-0.488,3.436-.948,7.357-1.063,10.479,0,0.1.011,0.194,0.022,0.388a26.583,26.583,0,0,1-2.466-2.3c0.154-2.443.475-5.382,0.732-7.733C397.235,459.291,397.229,459.194,397.218,459Zm117.624,78.565a6.512,6.512,0,0,0,3.558.968c3.978-.225,6.934-4.774,6.7-8.85a6.223,6.223,0,0,0-2.813-5c-7.891-5.3-14.729-9.2-18.786-19l15.815-.893c3.007-.169,4.374-3.557,4.182-6.954s-1.935-6.707-4.943-6.537l-0.291.016L516.987,468.6c-0.345-6.116-2.945-9.085-9.155-8.734l-8.538.482-0.192-3.4c-0.389-6.892-14.555-6.093-14.166.8l0.192,3.4-7.859.444c-6.113.345-8.364,3.587-8.019,9.7l1.281,22.713-2.134.121-1.6-28.343q-0.46-8.154-8.61-7.694l-14.554.821q-8.151.461-7.69,8.614l3.361,59.6c0.312,5.534,3.187,8.195,8.62,7.889l14.554-.822a9.74,9.74,0,0,0,3.94-.9c0.316,3.877,3.559,7.882,7.731,7.646a6.737,6.737,0,0,0,3.341-1.162c9.321-5.59,14.08-12.675,18.289-20.9A51.871,51.871,0,0,0,514.842,537.565Zm-14.278-54.7-0.531-9.416,4.462-.252,1.062,18.831-4.657.263C500.833,489.376,500.739,485.973,500.564,482.867ZM456.5,521.286l-3.882.219-1.144-20.287,3.882-.219Zm-1.872-33.2-3.882.219-0.931-16.5,3.882-.219Zm15.519,38.755a7.283,7.283,0,0,0,.016-1.461l-1-17.763,16.2-.915C483.3,515,478.856,520.8,470.144,526.844ZM486.4,483.666c0.186,3.3.275,6.606,0.336,9.427l-3.492.2-1.062-18.831,3.687-.208Zm136.644,18.871c-0.717-12.715-11.376-20.488-25.167-23.409,9.374-6.372,17.832-11.718,17.345-20.358-0.361-6.4-6.315-10.16-17.473-9.53-17.464.986-36.906,3.154-46.861,4.4-4.932.57-7.048,4.487-6.829,8.37,0.23,4.077,2.978,7.914,8.217,7.619l0.873-.05c10.332-1.46,27.155-3.48,35.79-3.967l2.522-.143c-3.442,2.824-12.364,8.585-16.4,11.151a7.319,7.319,0,0,0-3.61,6.727c0.186,3.3,2.7,6.373,7.767,6.573,8.686,0.387,25.162,4.325,25.785,15.391,0.154,2.718-1.644,5.351-4.343,7.548a40.315,40.315,0,0,0-34.092-15.993c-14.457.816-23.054,8.9-22.457,19.477,0.843,14.948,18.134,19.523,34.92,18.575C603.377,533.542,624.246,523.892,623.042,502.537ZM578.214,520.55c-10.576.6-17.715-1.726-17.945-5.8-0.132-2.329,1.8-4.386,7.618-4.715,6.015-.339,14.3,3.38,19.392,9.034A43,43,0,0,1,578.214,520.55Zm146.561-7.2c4.561-.257,7.6-5.006,7.345-9.568a8.492,8.492,0,0,0-5.186-7.4,129.68,129.68,0,0,0-26.05-9.728c-0.443-6.109-.965-11.922-1.466-17.347,7.757-.536,15.81-0.99,20.662-1.264,5.724-.323,8.4-4.564,8.181-8.544s-3.263-7.8-9.084-7.472c-3.59.2-12.409,0.9-21.324,1.593l-0.588-5.225c-0.682-5.22-5.084-7.309-9.352-7.068-4.367.247-8.58,3.211-8.323,7.773,0.012,0.194.028,0.486,0.039,0.68,1.67,10.617,3.27,21.725,4.261,34.133a84.732,84.732,0,0,0-11.4-.136c-16.4.926-28.426,10.271-27.627,24.443,0.931,16.5,15.7,22.873,28.309,22.161,13.389-.755,27.067-5.032,28.363-26.918a100.852,100.852,0,0,1,18.2,8.613A9.233,9.233,0,0,0,724.775,513.35ZM673,515.1c-5.24.295-11.575-1.587-11.92-7.7-0.3-5.242,5.07-8.465,11.668-8.838a55.36,55.36,0,0,1,12.118.874C684.857,511.416,680.66,514.671,673,515.1Zm114.761-8.425c-4.145.721-6.076,4.433-5.879,7.927,0.23,4.076,3.381,8.184,9.3,7.85a17.562,17.562,0,0,0,2.123-.315c17.16-4.669,49.078-16.89,47.414-46.4-0.9-15.919-14.071-26.86-34.474-26.2-4.214-3.949-9.128-8.248-12.8-11.254a9.239,9.239,0,0,0-6.638-2.06c-5.143.291-10.384,3.994-10.154,8.071a5.812,5.812,0,0,0,2.671,4.231,56.545,56.545,0,0,1,5.088,3.9,215.824,215.824,0,0,0-22.527,6.141,8.509,8.509,0,0,0-5.848,8.509c0.241,4.271,3.388,8.281,8.433,8a12.043,12.043,0,0,0,2.98-.656c8.962-3.329,22.165-7.385,37.01-8.223,10.382-.586,17.183,4.386,17.578,11.375C823,494.758,798.665,503.337,787.757,506.679Zm95.185,10.305c4.365-.246,8.471-3.4,8.164-8.835l-0.01-.194c-0.284-3.295-.947-9.879-1.221-14.732a357.25,357.25,0,0,1,.859-53.8c-0.016-.291.065-0.588,0.049-0.879-0.258-4.563-4.772-6.937-8.944-6.7-4.075.23-8.041,2.4-8.457,7.1a510.281,510.281,0,0,0-.2,60.385c0.18,3.2.6,7.269,0.854,9.981C874.347,514.743,878.672,517.225,882.942,516.984Zm65.112-24.221a7.9,7.9,0,0,0-1.449.179c-6.634,1.446-11.436,2.593-17.646,2.943-10.091.57-17.8-1.43-18.141-7.544-0.17-3.009,3.326-6.615,5.174-8.375a5.29,5.29,0,0,0,1.8-4.386c-0.225-3.98-4.525-7.73-9.084-7.472a7.924,7.924,0,0,0-4.759,1.925c-4.508,4.635-10.2,12.455-9.652,22.161,0.958,16.987,18.023,20.99,35.1,20.027a107.789,107.789,0,0,0,19.307-2.843c5.487-1.089,7.3-5.184,7.07-9.26C955.545,496.138,952.518,492.511,948.054,492.763ZM901.76,453.7a7.278,7.278,0,0,0,1.449-.179c5.87-1.208,16.181-3.055,22.584-3.417,4.754-.268,7.5.064,7.613,2.1,0.132,2.33-1.608,4.278-3.175,5.827a5.532,5.532,0,0,0-1.991,4.4c0.208,3.688,4.486,7.05,8.852,6.8a7.762,7.762,0,0,0,5.6-2.556c2.947-2.99,9.1-11.226,8.641-19.378-0.416-7.378-6.659-14.523-22.668-13.619a250.669,250.669,0,0,0-27.925,3.62c-4.814.953-6.632,4.952-6.424,8.64C894.549,450.114,897.3,453.951,901.76,453.7Zm-784.2,153.12c-1.94.109-4.075,0.229-6.2,0.448,0.644-2.374,1.306-4.456,1.978-6.344a8.269,8.269,0,0,0,.343-2.552c-0.236-4.173-4.847-6.542-9.5-6.28-3.687.208-7.281,2.067-8.512,6.129-0.978,3.366-2.129,7.131-3.263,11.187-7.438,1-14.191,2.068-18.632,2.708-5.018.77-7.122,4.881-6.9,8.861,0.23,4.076,2.988,8.108,7.936,7.829,0.292-.017.674-0.136,0.965-0.153,3.666-.6,7.524-1.2,11.583-1.724-4.369,15.729-8.974,32.446-11.832,43.9a8.676,8.676,0,0,0-.17,2.153c0.252,4.464,5.067,7.016,9.724,6.754a8.574,8.574,0,0,0,8.027-6.1c3.013-12.148,8.317-32.019,13.106-48.941,4.075-.23,7.951-0.546,11.541-0.748,9.605-.542,12.491,2.313,12.814,8.04,0.509,9.027-2.009,26.5-4.157,36.75a8.708,8.708,0,0,0-.17,2.153c0.268,4.755,4.975,7.119,9.536,6.861,4.074-.23,8.121-2.7,9.012-7.616,1.055-7.168,4.369-27.8,3.636-40.811C147.421,611.658,139,605.608,117.558,606.819ZM247.39,639.513a169.962,169.962,0,0,0-21.753-14.644,179.005,179.005,0,0,0,12.751-29.349,6.4,6.4,0,0,0,.262-2.254c-0.268-4.757-5.289-7.492-10.044-7.224-3.4.192-6.806,1.846-8.042,5.81a163.487,163.487,0,0,1-10.183,24.822c-6.51-3.236-12.906-6.186-18.783-8.58a11.491,11.491,0,0,0-4.523-.817A9.864,9.864,0,0,0,178,617.235a6.264,6.264,0,0,0,4.014,5.615,211.663,211.663,0,0,1,19.484,8.931,155.328,155.328,0,0,1-24.034,27.745,7,7,0,0,0-2.587,5.891c0.235,4.174,4.081,8.534,9.03,8.255a12.492,12.492,0,0,0,7.5-3.442,178.188,178.188,0,0,0,25.079-29.946,220.526,220.526,0,0,1,19.546,13.5,8.043,8.043,0,0,0,5.452,1.738,10.226,10.226,0,0,0,9.154-10.255A7.453,7.453,0,0,0,247.39,639.513Zm82.837-36.03c-17.852,1.007-42.2,4.231-53.108,5.821-5.12.678-7.311,4.988-7.092,8.872,0.23,4.076,3.08,8,8.222,7.715l0.68-.039c11.674-1.826,32.635-4.666,45.152-5.372,7.276-.411,9.676.72,9.824,3.341,0.444,7.862-19.953,22.451-29.887,29.244A7.524,7.524,0,0,0,300.4,659.6a9.047,9.047,0,0,0,9.612,8.222,12.476,12.476,0,0,0,5.826-1.984c12.547-8.79,40.933-28.407,39.9-46.753C355.186,609.377,347.886,602.486,330.227,603.483ZM282.439,601.8l0.388-.022c14.3-1.879,46.77-4.295,57.249-4.886a7.774,7.774,0,0,0,7.5-8.507c-0.219-3.882-2.864-7.628-8.1-7.332-8.829.5-45.956,3.178-58.23,4.747-4.742.463-6.939,4.676-6.714,8.656C274.748,598.336,277.491,602.077,282.439,601.8Zm177.77-2.633a9.576,9.576,0,0,0-2.311.422,180.859,180.859,0,0,0-28.39,9.2,37.417,37.417,0,0,0-12.842-1.613,24.916,24.916,0,0,0-3.773.408c3.873-3.821,6.544-6.5,9.468-9.882,13-.831,25.022-1.607,30.455-1.913,5.531-.313,7.937-4.246,7.723-8.032s-3.143-7.418-8.577-7.111c-3.2.18-10.575,0.6-19.69,1.209,0.092-.1.177-0.3,0.269-0.4a4.627,4.627,0,0,0,.989-3.172c-0.186-3.3-4.986-5.561-9.643-5.3a9.851,9.851,0,0,0-7.942,4.149c-1.438,2.126-2.88,4.154-4.426,6.092-7.853.54-15.707,1.081-22.2,1.545a7.672,7.672,0,0,0-7.513,8.311c0.213,3.786,3.137,7.322,8.377,7.026,2.9-.262,6.2-0.545,9.783-0.845-4.3,4.916-8.9,9.656-13.874,14.611a6.775,6.775,0,0,0-2.135,5.281,8.731,8.731,0,0,0,8.712,7.785,7.437,7.437,0,0,0,4.273-1.9c1.681-1.264,5.49-4.5,10.147-4.76a18.727,18.727,0,0,1,2.334-.035c-8.119,6.2-12.792,13.089-12.408,19.884,1,17.666,19.638,20.314,38.559,19.246,10.188-.575,17.328-1.659,23.893-2.614a8.023,8.023,0,0,0,7.114-8.484c-0.213-3.786-2.76-7.537-7.418-7.274a6.341,6.341,0,0,0-1.352.174,161.79,161.79,0,0,1-21.555,2.677l-1.553.087c-13.681.772-19.137-1.062-19.389-5.527-0.235-4.174,7.243-9.659,15.056-12.632a117.272,117.272,0,0,1,13.446,8.882,8.674,8.674,0,0,0,5.656,1.92c4.755-.268,8.577-4.964,8.359-8.846a5.142,5.142,0,0,0-1.96-3.688c-2.034-1.54-4.585-3.635-7.622-5.7,4.781-1.536,9.96-2.9,15.047-4.16a7.024,7.024,0,0,0,5.314-7.6A7.791,7.791,0,0,0,460.209,599.165ZM575.573,594.5c-4.56.257-16.483,1.125-23.943,1.741-4.264.337-6.31,3.764-6.113,7.258,0.209,3.689,2.454,7.262,6.82,7.016l0.194-.011c1.159-.163,2.518-0.24,3.871-0.413,4.236,6.089,7.093,11.869,7.372,16.819,0.362,6.407-4.26,10.757-14.933,11.359-7.859.444-10.675-2.9-11.261-13.289-0.558-9.9-.952-22.05-1.054-34.217,13.281-.944,25.889-1.753,32.778-2.141,5.53-.313,8.119-4.451,7.9-8.333s-3.252-7.607-8.685-7.3c-6.112.345-18.715,1.251-31.7,2.276-0.022-.388.064-0.588,0.042-0.976l-0.033-.583c-0.257-4.561-4.565-6.752-8.835-6.511-4.172.235-8.11,2.892-7.916,8.041,0.021,0.388.043,0.777,0.071,1.263-6.587.566-12.695,1.008-17.152,1.357a7.749,7.749,0,0,0-7.508,8.408,7.335,7.335,0,0,0,8.19,7.133l0.194-.011c4.738-.559,10.742-1.092,16.952-1.443,0.109,1.941.121,3.888,0.242,6.024-1.92-1.255-4.012-2.111-7.99-1.887-8.83.5-17.48,9.361-16.434,27.9,1.056,18.734,12.121,21.615,17.554,21.308a14.251,14.251,0,0,0,9.586-4.339c2.55,12.418,13.224,13.569,24.673,12.923,20.374-1.15,33.295-8.5,32.381-24.711a41.535,41.535,0,0,0-7.381-20.423l2.91-.164c4.27-.241,6.407-3.769,6.209-7.264S579.939,594.257,575.573,594.5Zm-59.114,35.665c-3.2.181-5.689-2.5-6.067-9.2s1.833-12.373,5.907-12.6c4.464-.252,5.32,4.568,5.687,11.072C522.4,626.718,520.534,629.939,516.459,630.169ZM686.4,576.661c-0.97.055-2.523,0.142-4.264,0.338-0.354-4.557-.809-7.453-1.017-11.141-0.543-4.448-4.739-6.354-8.716-6.129-4.366.246-8.6,2.822-8.366,7l0.033,0.583c0.559,4.74.89,7.156,1.211,11.13-8.03.843-16.747,1.627-23.317,2.485-4.829.662-6.939,4.676-6.726,8.461,0.219,3.883,2.95,7.429,7.8,7.156l0.388-.022c6.663-.961,14.888-1.814,22.439-2.532a138.4,138.4,0,0,1-5.956,44.543,6.333,6.333,0,0,0-.44,2.557c0.23,4.077,4.749,6.549,9.213,6.3,3.589-.2,7.086-2.055,8.22-6.112,4.183-13.869,6.1-29.849,5.818-48.724l4.561-.257c5.627-.318,8.222-4.359,8-8.242C695.058,580.068,692.025,576.343,686.4,576.661Zm-42.61,40.09a5.816,5.816,0,0,0-4.348,2.29c-1.443,2.028-3.984,5.288-6.507,5.43-1.844.1-3.624-2.132-4.04-9.509-0.717-12.716,1.177-29.182,3.258-40.6a8.43,8.43,0,0,0,.106-1.564c-0.251-4.465-4.777-7.034-9.142-6.788-3.784.214-7.453,2.467-8.177,6.889-1.779,13.343-3.432,27.167-2.546,42.892,1.073,19.025,9.032,27.242,19.8,26.634,6.113-.345,13.008-5.8,17.294-10.908,2.1-2.456,2.939-4.841,2.819-6.975A8.481,8.481,0,0,0,643.787,616.751Zm147.526-59.157c-17.271.975-51.374,3.776-67.14,5.541-5.228.49-7.795,5.017-7.56,9.191,0.23,4.077,3.079,8.006,8.609,7.694L725.61,580c11.411-1.326,21.27-2.564,32.88-3.8-11.081,8.9-18.666,21.113-17.949,33.828,1.232,21.84,21.726,27.987,39.323,29.331,0.388-.022.781,0.053,1.072,0.037a9.313,9.313,0,0,0,8.687-9.936c-0.2-3.591-2.621-6.766-7.413-7.177-10.738-.563-23.215-4.337-23.806-14.82-0.827-14.658,19.682-28.961,36.151-33.785,3.456-.877,5.37-4.88,5.152-8.762S796.747,557.287,791.313,557.594ZM911.9,602.3c-0.508-.361-1.117-0.813-1.926-1.352a23.955,23.955,0,0,0-.056-2.724c-1.626-28.829-11.436-40.544-29-39.553a38.562,38.562,0,0,0-23.49,9.8c-0.219-3.882-.438-7.764-0.619-12.721-0.241-4.27-4.437-6.176-8.414-5.951-4.076.23-8.128,2.6-7.887,6.871,0.2,3.494.378,6.7,0.547,9.707-2.641-.241-6.857-0.781-10.382-1.166a6.791,6.791,0,0,0-1.365-.021c-4.366.246-6.756,4.471-6.526,8.548,0.186,3.3,2.023,6.507,6.232,6.951,4.308,0.439,10.179.984,12.821,1.224q0.114,2.038.229,4.077a198.717,198.717,0,0,0-15.556,26.2,8.8,8.8,0,0,0-.929,4.24c0.257,4.563,4.735,8.01,8.81,7.78a5.823,5.823,0,0,0,5.241-3.7c1.286-3.091,2.583-5.989,3.971-8.988,0.264,6.412.426,12.732,0.706,19.436,0.263,4.659,4.271,6.672,8.055,6.459,3.978-.225,7.916-2.882,7.664-7.346-0.569-10.1-1.555-27.568-2.179-38.633,5.874-8.025,13.436-15.462,22.071-15.949,7.374-.417,11.367,4.811,13.1,18.346a38.8,38.8,0,0,0-8.5-.5c-12.613.712-20.744,10.129-20.115,21.292,0.7,12.327,10.631,19.362,21.5,18.748,10.09-.569,17.9-5.392,21.624-15.241a4.42,4.42,0,0,0,1.568.2c3.688-.208,6.341-4.935,6.176-9.6A7.676,7.676,0,0,0,911.9,602.3ZM885.08,618.711a5.878,5.878,0,0,1-6.344-5.484c-0.186-3.3,2.68-5.994,6.754-6.224a18.364,18.364,0,0,1,8.088,1.881C892.882,615.545,890.222,618.421,885.08,618.711ZM25.171,397.552a3.549,3.549,0,0,0,.976.579c4.091,1.388,6.46.48,7.851-1.073a8.55,8.55,0,0,0,1.836-5.385,0.965,0.965,0,0,0-.166-0.815A149.615,149.615,0,0,1,26.2,373.5a157.847,157.847,0,0,1-12.049-39.92A166.212,166.212,0,0,1,12.762,291.8c2.592-27.8,12.27-55.063,28.807-77.41A102.244,102.244,0,0,1,63.141,192.5a48.563,48.563,0,0,0,4.322,6.9,41.2,41.2,0,0,0,9.329,9.034,34.78,34.78,0,0,0,12.3,5.289,25.216,25.216,0,0,0,7.041.657,27.971,27.971,0,0,0,6.953-1.185,33.161,33.161,0,0,0,11.834-6.548,33.736,33.736,0,0,0,8.332-10.575,26.7,26.7,0,0,0,2.884-13.961l-0.236-1.875c-0.1-.622-0.255-1.24-0.391-1.857s-0.359-1.215-.545-1.821l-0.152-.463c-0.065-.173-0.183-0.406-0.271-0.606l-0.573-1.246c-0.361-.842-0.8-1.644-1.235-2.446l-0.65-1.2a0.285,0.285,0,0,0-.233-0.215l-0.312-.116-0.626-.234-2.5-.933-1.25-.467-0.313-.116c-0.1-.039-0.137-0.042-0.208-0.065l-0.376-.109a55.079,55.079,0,0,0-24.625-1.7,72.687,72.687,0,0,0-21.4,6.952c-0.1-1.012-.176-2.025-0.18-3.033a49.073,49.073,0,0,1,.869-9.547,60.909,60.909,0,0,1,2.68-9.485c4.6-12.54,12.79-24.242,21.409-35.482,2.035-2.9,4.4-5.544,6.665-8.266l3.418-4.066c1.146-1.349,2.244-2.741,3.5-4,4.9-5.116,9.621-10.41,14.916-15.135l3.873-3.642c1.286-1.219,2.566-2.445,3.953-3.552l8.152-6.829,2.037-1.708c0.682-.566,1.414-1.069,2.119-1.607l4.264-3.178,4.263-3.18,2.131-1.591c0.722-.514,1.474-0.985,2.209-1.479l8.872-5.871,2.217-1.469,2.293-1.347,4.593-2.683,4.592-2.685,2.3-1.343,2.368-1.211,9.469-4.849,2.37-1.206,2.432-1.077,4.862-2.155,4.862-2.157c0.813-.353,1.615-0.734,2.436-1.065l2.488-.939,9.949-3.761c0.832-.3,1.65-0.65,2.494-0.919l2.536-.8,5.072-1.594c3.392-1.025,6.731-2.241,10.192-3.015l4.83-1.22,2.83-.716,2.829-.716c0.943-.242,1.884-0.49,2.844-0.65l5.142-1.319,5.253-1.357c1.92-.49,3.954-1.074,6.016-1.428L283.794,8c1.48-.324,2.683-0.575,3.477-0.687,0.792-.138,1.165-0.227.982-0.248,6.79-1.217,12.416-2.675,13.547-3.961S299.543,0.7,288.066.184l-2.606-.165c-0.884-.018-1.782,0-2.693.007l-5.544.106-5.51.177-2.65.106c-0.862.057-1.7,0.163-2.509,0.241-6.493.676-11.317,1.279-11.317,1.279-1.015.2-2.035,0.377-3.045,0.6l-3.009.757-10,2.525A287.9,287.9,0,0,0,196.71,21.076c-6.963,2.884-13.551,6.552-20.276,9.931-0.848.411-1.658,0.89-2.469,1.368L171.527,33.8l-4.875,2.849-4.874,2.85c-1.612.971-3.152,2.057-4.731,3.081l-9.418,6.235-9.066,6.737-4.522,3.384-4.332,3.626c-2.879,2.428-5.8,4.813-8.639,7.281l-8.237,7.74c-1.354,1.309-2.784,2.541-4.076,3.913l-3.888,4.1L100.981,89.7l-1.942,2.053-0.97,1.028-0.911,1.082-7.281,8.657c-2.5,2.824-4.657,5.929-6.927,8.941l-3.374,4.542c-1.129,1.51-2.257,3.021-3.309,4.6A137.383,137.383,0,0,0,64.683,140.63a74.481,74.481,0,0,0-6.7,23.048c-0.247,2.039-.326,4.093-0.373,6.165l0.1,3.189c0.06,1.059.212,2.1,0.32,3.157,0.188,1.4.454,2.78,0.755,4.153a108.575,108.575,0,0,0-9.346,7.224,115.612,115.612,0,0,0-16.033,16.947,161.5,161.5,0,0,0-22.347,40.075A176.555,176.555,0,0,0,.514,289.11a181.243,181.243,0,0,0,1.23,45.707,171.222,171.222,0,0,0,13.151,43.874A162.036,162.036,0,0,0,25.171,397.552ZM89.916,179.61a44.849,44.849,0,0,1,18.953-.353c0.761,0.189,1.541.305,2.29,0.543l1.876,0.537,0.116,0.042,0.1,0.329,0.131,0.4c0.1,0.265.121,0.552,0.2,0.825a6.389,6.389,0,0,1,.13.844,5.5,5.5,0,0,1,.065.865,12.971,12.971,0,0,1-.405,3.618,18.826,18.826,0,0,1-3.76,7.141,22.538,22.538,0,0,1-6.495,5.375,17.387,17.387,0,0,1-7.62,2.191,13.223,13.223,0,0,1-3.853-.41l-1.025-.208c-0.338-.085-0.662-0.225-1-0.331a13.858,13.858,0,0,1-1.97-.735c-0.631-.321-1.293-0.567-1.91-0.927L83.9,198.243l-1.74-1.32c-0.588-.43-1.092-0.992-1.649-1.474a33.234,33.234,0,0,1-5.557-7.156c-0.466-.808-0.887-1.644-1.286-2.492A64.655,64.655,0,0,1,89.916,179.61ZM597.9,273.141a8.684,8.684,0,0,0,5.621,1.017,0.966,0.966,0,0,0,.782-0.282c1.247-1.07,2.443-2.2,3.728-3.224l3.907-3.012,1.951-1.508c0.644-.511,1.354-0.935,2.027-1.407L620,261.957c1.513-1.095,3.177-1.957,4.768-2.931l2.41-1.426c0.8-.479,1.6-0.964,2.442-1.369,3.335-1.682,6.605-3.5,10.071-4.913a147.6,147.6,0,0,1,21.1-7.541l5.449-1.331c0.911-.209,1.81-0.476,2.731-0.638l2.758-.5c1.841-.326,3.674-0.7,5.519-0.99l5.565-.685c0.928-.107,1.853-0.248,2.783-0.329l2.8-.175,5.593-.348,5.6-.018,2.8-.008,2.793,0.163,5.587,0.318,5.55,0.666,2.776,0.331c0.919,0.151,1.831.336,2.747,0.5l5.493,1.013a78.827,78.827,0,0,1,20.316,7.325c6.273,3.356,11.963,7.676,15.929,12.939a28.638,28.638,0,0,1,4.456,8.458,26.57,26.57,0,0,1,1.013,4.582c0.028,0.3.059,0.607,0.088,0.91a53.468,53.468,0,0,0-7.928,1.445l-1.608.389-1.58.5c-1.05.347-2.111,0.659-3.149,1.042a60.49,60.49,0,0,0-6.083,2.7,40.018,40.018,0,0,0-5.93,3.5,24.868,24.868,0,0,0-5.659,5.5,18.606,18.606,0,0,0-2.177,3.883,16.1,16.1,0,0,0-1.123,4.7,15.324,15.324,0,0,0,2.268,9.574,12.785,12.785,0,0,0,4.065,3.994,13.266,13.266,0,0,0,5.119,1.827,17.628,17.628,0,0,0,4.55.043,22.332,22.332,0,0,0,3.782-.747,36.044,36.044,0,0,0,12.794-6.336,39.087,39.087,0,0,0,13.678-19.9A49.374,49.374,0,0,1,809.11,299.8l1.9,1.724,1.759,1.881c0.286,0.32.606,0.608,0.867,0.952l0.527,0.662,0.411,0.516c0.534,0.7,1.139,1.342,1.606,2.1l1.493,2.187c0.48,0.741.891,1.529,1.344,2.289l0.748,1.108,1.746,3.062a55.765,55.765,0,0,1,4.023,9.929,54.59,54.59,0,0,1,2.009,10.413c0.066,0.705.156,1.347,0.191,1.906s0.044,1.036.059,1.413c0.041,0.757.085,1.12,0.127,0.953q0.041,0.614.079,1.214c0.015,0.4,0,.791,0,1.18,0.008,0.783.016,1.542,0.023,2.27,0.012,1.464-.1,2.8-0.074,4.007-0.085,2.377-.094,4.146.33,4.906,0.383,0.748,1.166.469,2.4-1.4,0.31-.468.651-1.035,1.025-1.711,0.351-.682.666-1.49,1.04-2.41a23.378,23.378,0,0,0,1.072-3.156q0.239-.9.5-1.882l0.258-1.018c0.062-.351.124-0.71,0.189-1.076a43.809,43.809,0,0,0,.821-5.485c0.071-.954.215-1.929,0.212-2.9s0.017-1.962.026-2.943c0.033-.99-0.076-1.962-0.136-2.937-0.082-.97-0.12-1.946-0.248-2.891s-0.284-1.876-.421-2.786l-0.216-1.351-0.3-1.295a47.861,47.861,0,0,0-1.229-4.707c-0.46-1.4-.8-2.681-1.245-3.682l-1.322-3.252a66.7,66.7,0,0,0-3.483-5.768c-0.653-.918-1.227-1.889-1.95-2.758l-1.056-1.324-0.529-.661-0.8-.991-1.13-1.22a56.361,56.361,0,0,0-10.044-8.718l-2.8-1.8c-0.944-.579-1.935-1.07-2.9-1.6l-1.461-.784-1.508-.678c-1.01-.441-2.009-0.913-3.031-1.321a68.34,68.34,0,0,0-12.674-3.524c-1.079-.191-2.171-0.3-3.257-0.445l-1.63-.2-0.887-.053a37.877,37.877,0,0,0-.783-5.585,39.17,39.17,0,0,0-5.431-12.942,49,49,0,0,0-8.909-10.227,66.672,66.672,0,0,0-10.674-7.608,89.9,89.9,0,0,0-23.738-9.3c-2.083-.524-4.092-0.821-6.135-1.22l-3.055-.564c-1.017-.2-2.036-0.38-3.066-0.481l-6.164-.741-1.541-.184c-0.514-.05-1.031-0.066-1.547-0.1l-3.1-.179-3.1-.177-1.548-.088c-0.516-.014-1.033,0-1.549,0l-6.2.021-1.55.007-1.546.091-3.091.2-3.091.2-1.545.1-1.537.184-6.145.758-1.536.191-1.523.276-3.044.557-3.044.559-1.522.28-1.5.366-6.012,1.469-1.5.37-1.48.452-2.958.907-2.958.91-1.478.458-1.451.538-5.8,2.158-1.449.545-1.417.623-2.834,1.247-2.833,1.248-1.414.631-1.378.706-5.512,2.828c-0.458.239-.923,0.465-1.374,0.715l-1.335.788-2.668,1.576c-1.763,1.079-3.6,2.039-5.281,3.246l-4.458,3.015c-0.734.515-1.5,0.98-2.209,1.536l-2.134,1.642L600.162,261c-1.4,1.12-2.718,2.35-4.08,3.521a3.54,3.54,0,0,0-.43,1.048C594.881,269.807,596.145,272,597.9,273.141Zm163.219,23.1a24.933,24.933,0,0,1-7.764,5.1l-1.063.425c-0.353.146-.726,0.213-1.087,0.328l-1.088.321c-0.355.086-.7,0.158-1.019,0.21a4.788,4.788,0,0,1-2.323,0,0.155,0.155,0,0,1-.1-0.071,1.437,1.437,0,0,1-.238-0.459,3.861,3.861,0,0,1-.046-2.1c0.046-.173.106-0.323,0.158-0.47,0.1-.211.205-0.425,0.331-0.639a8.124,8.124,0,0,1,.988-1.316,16.529,16.529,0,0,1,3.267-2.651,49.282,49.282,0,0,1,4.43-2.4c0.753-.407,1.579-0.669,2.363-1.015a21.7,21.7,0,0,1,2.41-.911l2.458-.8,2.52-.61,1.21-.287A26.934,26.934,0,0,1,761.115,296.244Z"/>
</svg>
